<?xml version="1.0" encoding="UTF-8"?>
<svg version="1.1" xmlns="http://www.w3.org/2000/svg" width="1024" height="1024">
<path d="M0 0 C337.92 0 675.84 0 1024 0 C1024 337.92 1024 675.84 1024 1024 C686.08 1024 348.16 1024 0 1024 C0 686.08 0 348.16 0 0 Z " fill="#FDFEFE" transform="translate(0,0)"/>
<path d="M0 0 C2.44742074 2.14976146 4.73268151 4.36271245 6.9765625 6.72265625 C7.83121094 7.58310547 7.83121094 7.58310547 8.703125 8.4609375 C20.93547258 21.60286991 24.62962584 38.29186385 24.29296875 55.62890625 C23.46251085 74.19780588 14.37471391 88.91743726 1.35546875 101.60546875 C-2.14533428 104.72112596 -5.82881585 107.58243605 -9.53759766 110.44506836 C-13.62637049 113.60299752 -17.60280478 116.85876779 -21.5234375 120.22265625 C-33.20112537 130.20329627 -45.13331328 140.23414222 -58.8359375 147.28515625 C-65.7093976 150.9193069 -68.6687418 154.12373442 -72.2734375 160.97265625 C-76.48010415 168.79257262 -82.65180045 175.07919833 -89.8671875 180.17578125 C-96.37451848 184.84408391 -102.43069779 190.13607994 -108.3359375 195.53515625 C-111.74044446 198.64036589 -115.18874295 201.16619322 -119.0234375 203.72265625 C-120.64363082 205.1420683 -122.24597319 206.58196306 -123.8359375 208.03515625 C-131.84784679 215.35142072 -140.39687244 221.52992218 -149.5546875 227.32421875 C-150.369375 227.84757813 -151.1840625 228.3709375 -152.0234375 228.91015625 C-153.1371875 229.61205078 -153.1371875 229.61205078 -154.2734375 230.328125 C-156.31768292 231.69730497 -156.31768292 231.69730497 -157.0234375 234.72265625 C-159.07713865 236.94303459 -161.23809692 238.53650361 -164.0234375 239.72265625 C-167.03881976 239.55455132 -169.14466943 238.78325501 -172.0234375 237.72265625 C-172.45914063 238.3259375 -172.89484375 238.92921875 -173.34375 239.55078125 C-176.89502716 244.31656445 -179.95597388 247.54307123 -185.0234375 250.72265625 C-186.56292844 252.07673405 -188.08144899 253.45479109 -189.5859375 254.84765625 C-193.79326032 258.69810794 -198.16361268 262.20295698 -202.71313477 265.63916016 C-207.41942866 269.21292343 -211.9765046 272.94902161 -216.5234375 276.72265625 C-218.68902093 278.50685491 -220.85600719 280.28933464 -223.0234375 282.07128906 C-224.27782375 283.10701521 -225.52843984 284.14734293 -226.7734375 285.19433594 C-243.31352986 299.08045915 -260.43280897 305.03836888 -282.0234375 303.72265625 C-296.51649267 301.89519236 -310.04372583 294.14838856 -320.0234375 283.72265625 C-320.95349609 282.83900391 -320.95349609 282.83900391 -321.90234375 281.9375 C-326.02235406 277.74375348 -328.68326888 272.97821439 -331.3359375 267.78515625 C-331.67383301 267.12894287 -332.01172852 266.47272949 -332.35986328 265.79663086 C-338.86096045 252.47349627 -339.49858422 234.54967284 -335.3359375 220.41015625 C-334.61459205 218.49494639 -333.84684799 216.59625258 -333.0234375 214.72265625 C-332.66121094 213.84867188 -332.29898437 212.9746875 -331.92578125 212.07421875 C-325.29271147 197.45898025 -312.75857863 187.49234892 -300.3503418 177.89428711 C-296.37532165 174.81446889 -292.52011362 171.62956345 -288.7109375 168.34765625 C-263.29870922 146.53918574 -263.29870922 146.53918574 -253.0234375 142.72265625 C-252.3634375 142.06265625 -251.7034375 141.40265625 -251.0234375 140.72265625 C-250.0540625 140.53703125 -249.0846875 140.35140625 -248.0859375 140.16015625 C-244.91577459 139.05915769 -244.91577459 139.05915769 -243.96484375 136.59375 C-243.22012736 134.31684198 -242.57041098 132.05449057 -242.0234375 129.72265625 C-241.3634375 129.72265625 -240.7034375 129.72265625 -240.0234375 129.72265625 C-239.7965625 129.04203125 -239.5696875 128.36140625 -239.3359375 127.66015625 C-236.20746045 120.65832666 -232.0334947 116.63059498 -225.9140625 112.203125 C-223.90899816 110.85085494 -223.90899816 110.85085494 -223.0234375 108.72265625 C-221.35677083 107.72265625 -219.69010417 106.72265625 -218.0234375 105.72265625 C-216.94806008 104.84232278 -215.88565194 103.9459379 -214.8359375 103.03515625 C-212.0234375 100.72265625 -212.0234375 100.72265625 -210.0234375 100.72265625 C-210.0234375 100.06265625 -210.0234375 99.40265625 -210.0234375 98.72265625 C-208.37184083 97.20036609 -206.65009623 95.75365432 -204.8984375 94.34765625 C-203.39796875 93.14302734 -203.39796875 93.14302734 -201.8671875 91.9140625 C-199.74531543 90.27893856 -197.64657214 88.73432147 -195.3984375 87.28515625 C-192.92399255 85.94161949 -192.92399255 85.94161949 -192.0234375 83.72265625 C-190.36681989 82.70609544 -188.69818894 81.70905646 -187.0234375 80.72265625 C-185.25072235 79.39836461 -183.50054882 78.0433966 -181.7734375 76.66015625 C-180.46632813 75.62181641 -180.46632813 75.62181641 -179.1328125 74.5625 C-176.95120875 72.89494083 -176.95120875 72.89494083 -176.0234375 70.72265625 C-174.36978344 69.70128168 -172.69967248 68.70653331 -171.0234375 67.72265625 C-165.25115636 64.01547621 -165.25115636 64.01547621 -161.0234375 58.72265625 C-161.0234375 57.73265625 -161.0234375 56.74265625 -161.0234375 55.72265625 C-159.0434375 55.72265625 -157.0634375 55.72265625 -155.0234375 55.72265625 C-154.6934375 54.73265625 -154.3634375 53.74265625 -154.0234375 52.72265625 C-151.00390625 51.484375 -151.00390625 51.484375 -147.2109375 50.41015625 C-145.96699219 50.04277344 -144.72304688 49.67539062 -143.44140625 49.296875 C-140.0234375 48.72265625 -140.0234375 48.72265625 -137.57421875 49.6171875 C-137.06246094 49.98199219 -136.55070313 50.34679687 -136.0234375 50.72265625 C-135.67539062 49.62824219 -135.67539062 49.62824219 -135.3203125 48.51171875 C-133.77633175 45.19123004 -132.01248738 43.52066191 -129.2734375 41.09765625 C-128.78955566 40.6687207 -128.30567383 40.23978516 -127.80712891 39.79785156 C-123.54844135 36.07200581 -119.11539188 32.57560537 -114.6418457 29.11303711 C-109.83496071 25.38904675 -105.13981718 21.54333304 -100.4609375 17.66015625 C-70.44318442 -7.16273445 -36.19279009 -27.26149435 0 0 Z " fill="#215AA1" transform="translate(670.0234375,376.27734375)"/>
<path d="M0 0 C11.57553297 9.81333591 20.13203183 23.69363259 21.609375 38.93359375 C21.70803942 40.5368905 21.79728103 42.14096463 21.859375 43.74609375 C20.42265932 44.39367 18.98497084 45.03908828 17.546875 45.68359375 C16.34611328 46.22306641 16.34611328 46.22306641 15.12109375 46.7734375 C8.01604637 49.82897601 -0.6155844 49.98293818 -8.0703125 47.9453125 C-15.00383152 44.80254921 -21.40458054 39.21385522 -24.203125 32.01171875 C-24.5125 31.2640625 -24.821875 30.51640625 -25.140625 29.74609375 C-27.60885591 28.9190537 -27.60885591 28.9190537 -30.140625 28.74609375 C-30.800625 28.41609375 -31.460625 28.08609375 -32.140625 27.74609375 C-40.22510197 27.04757662 -46.25441096 27.32852248 -53.140625 31.74609375 C-54.130625 32.73609375 -54.130625 32.73609375 -55.140625 33.74609375 C-53.27014532 48.24231125 -44.71582358 60.05743885 -33.40625 68.87890625 C-21.4899007 76.83461923 -10.40956278 79.93316773 3.734375 79.80859375 C4.70890625 79.80408203 5.6834375 79.79957031 6.6875 79.79492188 C9.07818934 79.78320281 11.4687494 79.76679594 13.859375 79.74609375 C9.29051238 92.37116341 -2.3695089 101.5568652 -12.70532227 109.51904297 C-16.77956131 112.65793392 -20.73828135 115.89636827 -24.640625 119.24609375 C-29.64810395 123.53483963 -34.7676904 127.64849144 -39.98046875 131.68481445 C-42.77619047 133.85732321 -45.52959852 136.05243603 -48.19921875 138.37890625 C-65.29646671 153.22830886 -82.83838298 159.46347166 -105.56542969 158.01220703 C-120.27794292 156.4918582 -133.77983846 147.99853923 -143.140625 136.74609375 C-151.27271797 126.08767042 -156.40627473 115.29423006 -156.140625 101.74609375 C-154.89326933 101.09516785 -153.64260668 100.45057706 -152.390625 99.80859375 C-151.34648437 99.26912109 -151.34648437 99.26912109 -150.28125 98.71875 C-143.05723641 95.43630587 -134.27319518 95.63441198 -126.890625 98.30859375 C-119.63279564 101.61078942 -114.01644184 106.80192191 -110.140625 113.74609375 C-110.140625 114.40609375 -110.140625 115.06609375 -110.140625 115.74609375 C-102.72369557 118.54429894 -94.57753479 119.33386571 -87.0078125 116.625 C-84.63444056 115.43155228 -82.37197069 114.18567161 -80.140625 112.74609375 C-80.34803983 100.50861877 -87.20219707 90.77401745 -95.48046875 82.18359375 C-110.75113859 68.1910857 -129.29685919 65.2979284 -149.140625 65.74609375 C-143.37218076 53.45019944 -133.64794363 44.98764758 -123.140625 36.74609375 C-120.57067322 34.67190074 -118.01273447 32.58302703 -115.453125 30.49609375 C-114.07706024 29.37861395 -112.7007555 28.2614296 -111.32421875 27.14453125 C-108.56351246 24.90326772 -105.805845 22.65835171 -103.05078125 20.41015625 C-99.08896387 17.17857493 -95.11793911 13.95857852 -91.140625 10.74609375 C-90.20790771 9.99102539 -90.20790771 9.99102539 -89.25634766 9.22070312 C-61.74759596 -12.98419245 -31.10385594 -22.32204587 0 0 Z " fill="#F5831A" transform="translate(581.140625,448.25390625)"/>
<path d="M0 0 C3.64551041 2.74590771 6.85801064 5.69549395 10 9 C10.85464844 9.86044922 10.85464844 9.86044922 11.7265625 10.73828125 C23.95891008 23.88021366 27.65306334 40.5692076 27.31640625 57.90625 C26.48594835 76.47514963 17.39815141 91.19478101 4.37890625 103.8828125 C0.87810322 106.99846971 -2.80537835 109.8597798 -6.51416016 112.72241211 C-10.60293299 115.88034127 -14.57936728 119.13611154 -18.5 122.5 C-38.17524906 139.31596394 -56.71962875 155.12700499 -83.8125 155.3125 C-84.58851563 155.31813965 -85.36453125 155.3237793 -86.1640625 155.32958984 C-94.78654874 155.22125793 -102.26463485 153.34448327 -109.9375 149.4375 C-110.6284375 149.08671387 -111.319375 148.73592773 -112.03125 148.37451172 C-118.22209291 145.10117585 -123.2218799 141.13840923 -128 136 C-128.72832031 135.21753906 -129.45664062 134.43507813 -130.20703125 133.62890625 C-136.67567849 126.12815573 -140.6188316 117.82810353 -142 108 C-140.73299277 107.0158875 -139.4612381 106.03788503 -138.1875 105.0625 C-137.47980469 104.51722656 -136.77210938 103.97195313 -136.04296875 103.41015625 C-130.73593895 99.74698654 -124.16803736 100.62663212 -118 101 C-111.37675563 102.49557131 -109.21597762 106.15381041 -105.68359375 111.55859375 C-102.14323166 116.69252949 -97.17928917 120.63846171 -91 122 C-72.05147951 123.76967959 -61.53158733 115.63488072 -47.5625 104.125 C-45.35977495 102.29812822 -43.16022253 100.46753434 -40.96240234 98.63476562 C-38.44311197 96.5360883 -35.91155087 94.45277261 -33.375 92.375 C-32.53324219 91.68019531 -31.69148437 90.98539062 -30.82421875 90.26953125 C-28.6426116 88.51640019 -26.44317085 86.8178393 -24.20703125 85.13671875 C-14.82244122 78.00721636 -8.3414102 71.67304873 -5 60 C-3.73351677 49.9412005 -5.44729005 42.45496168 -11 34 C-15.65268589 28.24536218 -22.72064043 23.57005795 -30 22 C-43.29520816 20.82007661 -51.78887019 24.7978268 -62 33 C-62.61713867 33.49387207 -63.23427734 33.98774414 -63.87011719 34.49658203 C-69.16846217 38.74432609 -74.41816027 43.05024964 -79.66015625 47.3671875 C-82.76398401 49.92328095 -85.87515314 52.4696362 -89 55 C-89.76183594 55.62132812 -90.52367187 56.24265625 -91.30859375 56.8828125 C-92.01113281 57.43710937 -92.71367188 57.99140625 -93.4375 58.5625 C-94.03433594 59.03816406 -94.63117187 59.51382813 -95.24609375 60.00390625 C-97 61 -97 61 -101 61 C-101 60.34 -101 59.68 -101 59 C-102.98 59 -104.96 59 -107 59 C-107 58.34 -107 57.68 -107 57 C-120.86 56.505 -120.86 56.505 -135 56 C-131.43423874 47.08559686 -125.08784382 42.2011403 -117.67041016 36.32910156 C-115.20765061 34.36954837 -112.76939371 32.38029347 -110.3293457 30.39257812 C-108.28178357 28.72498364 -106.23088492 27.06155752 -104.1796875 25.3984375 C-101.42644581 23.16375509 -98.68230985 20.91860608 -95.9453125 18.6640625 C-66.90024706 -5.22112446 -36.0436359 -22.77525658 0 0 Z " fill="#205AA2" transform="translate(667,374)"/>
<path d="M0 0 C11.57553297 9.81333591 20.13203183 23.69363259 21.609375 38.93359375 C21.70803942 40.5368905 21.79728103 42.14096463 21.859375 43.74609375 C20.42265932 44.39367 18.98497084 45.03908828 17.546875 45.68359375 C16.34611328 46.22306641 16.34611328 46.22306641 15.12109375 46.7734375 C10.78952267 48.6362375 7.06879846 48.92913841 2.421875 48.93359375 C1.10316406 48.94777344 -0.21554687 48.96195312 -1.57421875 48.9765625 C-6.78823608 48.63962162 -6.78823608 48.63962162 -9.140625 46.74609375 C-9.7578125 44.6796875 -9.7578125 44.6796875 -10.015625 42.18359375 C-11.16363388 35.38384883 -13.99776037 30.28979875 -19.39453125 25.921875 C-21.60091333 24.42066281 -23.80735692 23.03999696 -26.140625 21.74609375 C-26.72585938 21.37355469 -27.31109375 21.00101562 -27.9140625 20.6171875 C-34.52554967 18.03058813 -43.74381434 18.76931134 -50.46875 20.703125 C-58.16263373 24.27234646 -64.33785505 29.80464748 -70.61181641 35.3984375 C-72.82205404 37.34677857 -75.10229449 39.20300351 -77.390625 41.05859375 C-82.89370355 45.53990187 -88.37302065 50.04948843 -93.84667969 54.56665039 C-97.10016683 57.24993498 -100.35681875 59.92808185 -103.640625 62.57421875 C-104.630625 63.3734375 -105.620625 64.17265625 -106.640625 64.99609375 C-107.4965625 65.681875 -108.3525 66.36765625 -109.234375 67.07421875 C-111.23182118 68.61385319 -111.23182118 68.61385319 -112.140625 70.74609375 C-112.73488281 70.55273438 -113.32914062 70.359375 -113.94140625 70.16015625 C-125.85723074 66.41677126 -136.74211422 65.4660772 -149.140625 65.74609375 C-143.37218076 53.45019944 -133.64794363 44.98764758 -123.140625 36.74609375 C-120.57067322 34.67190074 -118.01273447 32.58302703 -115.453125 30.49609375 C-114.07706024 29.37861395 -112.7007555 28.2614296 -111.32421875 27.14453125 C-108.56351246 24.90326772 -105.805845 22.65835171 -103.05078125 20.41015625 C-99.08896387 17.17857493 -95.11793911 13.95857852 -91.140625 10.74609375 C-90.20790771 9.99102539 -90.20790771 9.99102539 -89.25634766 9.22070312 C-61.74759596 -12.98419245 -31.10385594 -22.32204587 0 0 Z " fill="#F68219" transform="translate(581.140625,448.25390625)"/>
<path d="M0 0 C0.99 0.33 1.98 0.66 3 1 C3 1.33 3 1.66 3 2 C3.43892578 2.86044922 3.43892578 2.86044922 3.88671875 3.73828125 C5.08627796 6.17528049 5.94042198 8.61579757 6.8125 11.1875 C11.73319133 24.80985503 20.13231419 36.74838385 32.6875 44.25 C33.26822266 44.600625 33.84894531 44.95125 34.44726562 45.3125 C36.60241414 46.60808061 38.75014782 47.87507391 41 49 C39.74480642 52.76558073 38.08137821 53.5489037 35 56 C34.2575 56.928125 33.515 57.85625 32.75 58.8125 C30.13061443 62.0505748 27.10292707 64.3915547 23.78125 66.8828125 C21.64188163 68.51137662 19.54979721 70.16663026 17.46875 71.8671875 C-6.91733415 91.78181016 -6.91733415 91.78181016 -22.6875 91.34375 C-31.55590592 90.42344373 -39.31265254 86.99121533 -45 80 C-50.72947085 70.45505184 -53.67999291 61.75589528 -51.5390625 50.59765625 C-48.1978884 39.41454999 -41.05150143 32.91001828 -32 26 C-30.43423377 24.75409376 -28.87165975 23.50416391 -27.3125 22.25 C-26.50941406 21.60933594 -25.70632813 20.96867188 -24.87890625 20.30859375 C-21.15746628 17.32437255 -17.45270455 14.31991845 -13.75 11.3125 C-13.07622314 10.76561523 -12.40244629 10.21873047 -11.70825195 9.65527344 C-11.05687256 9.12579102 -10.40549316 8.59630859 -9.734375 8.05078125 C-9.10337891 7.54111816 -8.47238281 7.03145508 -7.82226562 6.50634766 C-6.62306783 5.51504937 -5.44361509 4.4992853 -4.28710938 3.45849609 C-2.91805207 2.23503829 -1.46478488 1.10705562 0 0 Z " fill="#EEFAF1" transform="translate(416,557)"/>
<path d="M0 0 C5.94239863 5.31844677 10.80250476 13.28658747 11.6953125 21.22265625 C12.10787889 31.12424967 9.99965807 39.69910917 3.90625 47.66015625 C-0.2132521 52.02260335 -5.16796725 55.54485699 -9.91796875 59.1875 C-13.55161544 61.98704031 -17.05023291 64.92423081 -20.53125 67.91015625 C-33.50963737 78.98064296 -33.50963737 78.98064296 -38.65625 80.09765625 C-40.0042243 80.73419967 -41.34221724 81.39371013 -42.65625 82.09765625 C-44.45144317 78.76372608 -45.87691849 75.52359863 -46.96875 71.91015625 C-51.76958724 57.3370564 -62.94171394 43.11732543 -76.76953125 36.01171875 C-78.37262685 35.31136837 -80.01115427 34.69269087 -81.65625 34.09765625 C-80.5019343 30.63470916 -79.65056621 30.08635182 -76.78125 27.97265625 C-73.27769134 25.33533178 -69.84883168 22.64185711 -66.46875 19.84765625 C-60.45120151 14.90346261 -54.34400571 10.08020309 -48.19677734 5.29882812 C-46.88288593 4.27436762 -45.57551261 3.24155658 -44.26953125 2.20703125 C-30.49200824 -8.51182751 -14.84278673 -10.63005461 0 0 Z " fill="#EDF9F1" transform="translate(651.65625,401.90234375)"/>
<path d="M0 0 C6.97023147 4.50952854 12.04000007 10.55021573 14.8125 18.4375 C15.0625 21.9375 15.0625 21.9375 14.8125 24.4375 C9.10398384 23.45634879 4.96481991 19.08007055 1.40625 14.7109375 C-1.1875 10.95 -1.1875 10.95 -1.1875 8.4375 C-2.363125 8.2209375 -2.363125 8.2209375 -3.5625 8 C-6.1875 7.4375 -6.1875 7.4375 -8.1875 6.4375 C-16.27197697 5.73898287 -22.30128596 6.01992873 -29.1875 10.4375 C-29.8475 11.0975 -30.5075 11.7575 -31.1875 12.4375 C-29.47363875 25.71992466 -22.11671635 36.76041215 -12.1875 45.4375 C-9.36087153 47.47875283 -6.52602868 49.30662533 -3.5 51.03515625 C-1.37173863 52.32577421 0.15412734 53.59910662 1.8125 55.4375 C-5.29753928 61.58450802 -12.41202309 67.69966332 -19.78515625 73.53125 C-22.31471017 75.53844075 -24.81575938 77.57715331 -27.3125 79.625 C-28.22128906 80.3675 -29.13007812 81.11 -30.06640625 81.875 C-32.4180139 83.80009436 -34.75492606 85.7422065 -37.08984375 87.6875 C-50.52928705 98.82644084 -61.09186997 106.78985074 -79.16113281 105.66699219 C-87.11686265 104.76598182 -92.62886768 99.81312274 -97.55859375 93.84765625 C-100.87606225 88.93907576 -102.1875 84.32114217 -102.1875 78.4375 C-94.94049788 80.63356125 -89.84283371 86.00411267 -86.1875 92.4375 C-86.1875 93.0975 -86.1875 93.7575 -86.1875 94.4375 C-78.77057057 97.23570519 -70.62440979 98.02527196 -63.0546875 95.31640625 C-60.68131556 94.12295853 -58.41884569 92.87707786 -56.1875 91.4375 C-56.39505477 79.19176873 -63.25687763 69.52149896 -71.48828125 60.88671875 C-75.68323726 57.08029701 -80.28479038 54.23555225 -85.1875 51.4375 C-86.1775 50.7775 -87.1675 50.1175 -88.1875 49.4375 C-86.6253343 45.25870674 -83.54349171 42.92268593 -80.1875 40.1875 C-79.60371582 39.70297363 -79.01993164 39.21844727 -78.41845703 38.71923828 C-74.19667949 35.22706517 -69.92777489 31.79330599 -65.63671875 28.38671875 C-60.01004671 23.90871341 -54.41540481 19.38670987 -48.98828125 14.66796875 C-35.26901955 2.77074878 -18.58418829 -9.58606686 0 0 Z " fill="#FCFCFA" transform="translate(557.1875,469.5625)"/>
<path d="M0 0 C-0.721875 0.804375 -1.44375 1.60875 -2.1875 2.4375 C-4.26913543 4.91342849 -5.78268539 7.37160931 -7.25 10.25 C-11.45666665 18.06991637 -17.62836295 24.35654208 -24.84375 29.453125 C-31.35108098 34.12142766 -37.40726029 39.41342369 -43.3125 44.8125 C-46.71700696 47.91770964 -50.16530545 50.44353697 -54 53 C-55.62019332 54.41941205 -57.22253569 55.85930681 -58.8125 57.3125 C-66.82440929 64.62876447 -75.37343494 70.80726593 -84.53125 76.6015625 C-85.3459375 77.12492188 -86.160625 77.64828125 -87 78.1875 C-87.7425 78.65542969 -88.485 79.12335938 -89.25 79.60546875 C-91.29424542 80.97464872 -91.29424542 80.97464872 -92 84 C-94.05370115 86.22037834 -96.21465942 87.81384736 -99 89 C-102.01538226 88.83189507 -104.12123193 88.06059876 -107 87 C-107.70576172 87.97453125 -107.70576172 87.97453125 -108.42578125 88.96875 C-109.04839844 89.8040625 -109.67101562 90.639375 -110.3125 91.5 C-110.92738281 92.3353125 -111.54226563 93.170625 -112.17578125 94.03125 C-113.07876953 95.00578125 -113.07876953 95.00578125 -114 96 C-114.99 96 -115.98 96 -117 96 C-113.535 91.545 -113.535 91.545 -110 87 C-112.84107549 85.57946225 -115.20632471 85.98205902 -118.375 86.0625 C-127.18943151 86.12584807 -135.7295703 85.21627822 -144 82 C-144 81.34 -144 80.68 -144 80 C-146.97 82.31 -149.94 84.62 -153 87 C-153.99 86.01 -153.99 86.01 -155 85 C-154.030625 84.38125 -153.06125 83.7625 -152.0625 83.125 C-148.97164638 81.34321154 -148.97164638 81.34321154 -148 79 C-148.78375 78.814375 -149.5675 78.62875 -150.375 78.4375 C-155.43051931 76.4327251 -159.8312232 73.49320428 -164 70 C-164 69.34 -164 68.68 -164 68 C-164.90105469 67.5978125 -164.90105469 67.5978125 -165.8203125 67.1875 C-175.35942788 61.99056259 -181.47564754 47.77385814 -184.6875 37.8828125 C-185.15565951 36.26376085 -185.58306553 34.63299333 -186 33 C-186.99 33.495 -186.99 33.495 -188 34 C-186.76415411 29.05661643 -185.24765527 26.83177018 -181 24 C-180.67 24 -180.34 24 -180 24 C-179.82984375 24.90621094 -179.6596875 25.81242188 -179.484375 26.74609375 C-176.17524956 43.37972959 -169.1069813 57.96108259 -155.05859375 68.12890625 C-139.84369731 78.07076999 -123.4750589 80.57386538 -105.63671875 77.3046875 C-93.09550664 74.2558535 -83.75830604 68.18524577 -74 60 C-72.05632789 58.41437275 -70.10680753 56.83610982 -68.15698242 55.25805664 C-62.05643716 50.31945228 -55.97798296 45.35372961 -49.91015625 40.375 C-47.65349816 38.53332467 -45.39018878 36.70125109 -43.12109375 34.875 C-25.21570342 21.12574691 -25.21570342 21.12574691 -11.4375 3.5625 C-9.64930237 0.55266241 -9.36297897 0.12341285 -5.875 -1.0625 C-3 -1 -3 -1 0 0 Z " fill="#4DE876" transform="translate(605,527)"/>
<path d="M0 0 C0.52207031 0.36480469 1.04414062 0.72960937 1.58203125 1.10546875 C1.25203125 2.09546875 0.92203125 3.08546875 0.58203125 4.10546875 C1.25258545 4.10023193 1.92313965 4.09499512 2.61401367 4.08959961 C5.66584325 4.0687527 8.71765781 4.05578406 11.76953125 4.04296875 C13.35217773 4.03040039 13.35217773 4.03040039 14.96679688 4.01757812 C16.49916992 4.01274414 16.49916992 4.01274414 18.0625 4.0078125 C18.99989014 4.00257568 19.93728027 3.99733887 20.90307617 3.99194336 C23.56252602 4.10464218 25.99123698 4.51170226 28.58203125 5.10546875 C28.58203125 5.76546875 28.58203125 6.42546875 28.58203125 7.10546875 C30.56203125 7.10546875 32.54203125 7.10546875 34.58203125 7.10546875 C34.58203125 7.76546875 34.58203125 8.42546875 34.58203125 9.10546875 C35.22140625 9.18796875 35.86078125 9.27046875 36.51953125 9.35546875 C50.31192027 12.73319667 60.77227435 23.61628828 68.58203125 35.10546875 C73.58203125 43.57735139 73.58203125 43.57735139 73.58203125 49.10546875 C74.24203125 49.43546875 74.90203125 49.76546875 75.58203125 50.10546875 C76.31278773 52.41953095 76.98341383 54.75375744 77.58203125 57.10546875 C78.18015625 56.77546875 78.77828125 56.44546875 79.39453125 56.10546875 C81.58203125 55.10546875 81.58203125 55.10546875 84.58203125 55.10546875 C80.88112604 59.03067125 77.03243469 62.05127031 72.58203125 65.10546875 C71.92203125 64.77546875 71.26203125 64.44546875 70.58203125 64.10546875 C70.125 61.8046875 70.125 61.8046875 69.76953125 58.79296875 C67.3372882 43.22292803 58.97255629 30.6318176 46.5234375 21.07421875 C33.01927748 12.03557778 16.76834835 7.93547063 0.69921875 10.796875 C-14.49893095 14.06451349 -25.63725813 21.32457934 -37.41796875 31.10546875 C-38.80949839 32.25178472 -40.2014384 33.39760268 -41.59375 34.54296875 C-43.76264015 36.32856366 -45.93022529 38.11562111 -48.09375 39.90771484 C-52.54340908 43.58855828 -57.04362289 47.18997021 -61.60546875 50.73046875 C-68.236006 55.88649628 -74.60538275 61.31536461 -80.93457031 66.83496094 C-82.17231953 67.89507399 -83.44376905 68.91567712 -84.72265625 69.92578125 C-89.27770057 73.56615804 -92.16487073 77.60233812 -95.35546875 82.41796875 C-100.31414947 89.87232024 -100.31414947 89.87232024 -105.54296875 90.98046875 C-106.82171875 91.02171875 -108.10046875 91.06296875 -109.41796875 91.10546875 C-108.92296875 90.11546875 -108.92296875 90.11546875 -108.41796875 89.10546875 C-107.75796875 89.10546875 -107.09796875 89.10546875 -106.41796875 89.10546875 C-105.42796875 86.13546875 -104.43796875 83.16546875 -103.41796875 80.10546875 C-102.75796875 80.10546875 -102.09796875 80.10546875 -101.41796875 80.10546875 C-101.19109375 79.42484375 -100.96421875 78.74421875 -100.73046875 78.04296875 C-97.6019917 71.04113916 -93.42802595 67.01340748 -87.30859375 62.5859375 C-85.30352941 61.23366744 -85.30352941 61.23366744 -84.41796875 59.10546875 C-81.91796875 57.60546875 -81.91796875 57.60546875 -79.41796875 56.10546875 C-78.34259133 55.22513528 -77.28018319 54.3287504 -76.23046875 53.41796875 C-73.41796875 51.10546875 -73.41796875 51.10546875 -71.41796875 51.10546875 C-71.41796875 50.44546875 -71.41796875 49.78546875 -71.41796875 49.10546875 C-69.76637208 47.58317859 -68.04462748 46.13646682 -66.29296875 44.73046875 C-65.29265625 43.92738281 -64.29234375 43.12429688 -63.26171875 42.296875 C-61.13984668 40.66175106 -59.04110339 39.11713397 -56.79296875 37.66796875 C-54.3185238 36.32443199 -54.3185238 36.32443199 -53.41796875 34.10546875 C-51.76135114 33.08890794 -50.09272019 32.09186896 -48.41796875 31.10546875 C-46.6452536 29.78117711 -44.89508007 28.4262091 -43.16796875 27.04296875 C-42.2965625 26.35074219 -41.42515625 25.65851563 -40.52734375 24.9453125 C-38.34574 23.27775333 -38.34574 23.27775333 -37.41796875 21.10546875 C-35.76431469 20.08409418 -34.09420373 19.08934581 -32.41796875 18.10546875 C-26.64568761 14.39828871 -26.64568761 14.39828871 -22.41796875 9.10546875 C-22.41796875 8.11546875 -22.41796875 7.12546875 -22.41796875 6.10546875 C-20.43796875 6.10546875 -18.45796875 6.10546875 -16.41796875 6.10546875 C-16.08796875 5.11546875 -15.75796875 4.12546875 -15.41796875 3.10546875 C-12.6171875 1.8671875 -12.6171875 1.8671875 -9.10546875 0.79296875 C-7.95433594 0.42558594 -6.80320312 0.05820312 -5.6171875 -0.3203125 C-2.41796875 -0.89453125 -2.41796875 -0.89453125 0 0 Z " fill="#56E776" transform="translate(531.41796875,425.89453125)"/>
<path d="M0 0 C2.55337366 1.22617045 3.35612287 2.15150764 4.734375 4.60546875 C5.14171875 5.32476563 5.5490625 6.0440625 5.96875 6.78515625 C6.56429687 7.90277344 6.56429687 7.90277344 7.171875 9.04296875 C7.76742187 10.09871094 7.76742187 10.09871094 8.375 11.17578125 C10.36802521 14.8670885 11.82488119 17.73312789 11.171875 22.04296875 C10.171875 23.04296875 10.171875 23.04296875 7.796875 23.41796875 C5.171875 23.04296875 5.171875 23.04296875 3.359375 20.66796875 C2.171875 18.04296875 2.171875 18.04296875 2.171875 16.04296875 C1.511875 16.04296875 0.851875 16.04296875 0.171875 16.04296875 C0.05972656 17.05875 -0.05242187 18.07453125 -0.16796875 19.12109375 C-2.02813815 30.17204093 -7.88852628 39.46409475 -14.828125 48.04296875 C-15.35921875 48.749375 -15.8903125 49.45578125 -16.4375 50.18359375 C-26.38913137 62.69703121 -43.26090572 71.48487232 -58.828125 74.04296875 C-61.55692688 74.23246888 -64.09093426 74.2008836 -66.828125 74.04296875 C-66.02375 74.76484375 -65.219375 75.48671875 -64.390625 76.23046875 C-61.81891534 79.05307691 -60.92978108 80.28169384 -60.828125 84.04296875 C-61.818125 85.03296875 -61.818125 85.03296875 -62.828125 86.04296875 C-67.7121537 85.84971582 -71.21639218 83.13400076 -75.078125 80.41796875 C-76.03332031 79.79728516 -76.03332031 79.79728516 -77.0078125 79.1640625 C-80.45997464 76.747549 -81.65955684 75.58816298 -82.9453125 71.4296875 C-82.828125 68.04296875 -82.828125 68.04296875 -81.5703125 66.0390625 C-80.95414063 65.52472656 -80.33796875 65.01039063 -79.703125 64.48046875 C-76.37182252 61.52969581 -73.61739301 58.50842294 -70.828125 55.04296875 C-69.178125 55.37296875 -67.528125 55.70296875 -65.828125 56.04296875 C-65.140625 58.29296875 -65.140625 58.29296875 -64.828125 61.04296875 C-66.265625 63.35546875 -66.265625 63.35546875 -67.828125 65.04296875 C-62.54255272 65.27575302 -58.07224468 64.5465918 -53.078125 62.91796875 C-52.3778418 62.69061035 -51.67755859 62.46325195 -50.95605469 62.22900391 C-33.74174337 56.42638268 -21.05394248 45.1482535 -12.828125 29.04296875 C-10.56741483 24.14074893 -8.64300733 19.12463929 -6.828125 14.04296875 C-7.77042969 14.70683594 -8.71273437 15.37070312 -9.68359375 16.0546875 C-12.828125 18.04296875 -12.828125 18.04296875 -15.140625 17.85546875 C-16.828125 17.04296875 -16.828125 17.04296875 -17.828125 16.04296875 C-18.33984375 13.84765625 -18.33984375 13.84765625 -17.828125 11.04296875 C-15.70103725 8.7135616 -13.21295205 6.9769727 -10.640625 5.16796875 C-9.96708984 4.6575 -9.29355469 4.14703125 -8.59960938 3.62109375 C-3.6609494 0.05562216 -3.6609494 0.05562216 0 0 Z " fill="#52E479" transform="translate(607.828125,554.95703125)"/>
<path d="M0 0 C3.8183452 0.45418767 6.1077724 2.37055058 9.01171875 4.7109375 C9.54474609 5.1234375 10.07777344 5.5359375 10.62695312 5.9609375 C16.67902428 10.68079174 16.67902428 10.68079174 17.3046875 13.50390625 C16.56672805 17.85366726 13.99365658 20.39628435 11.13671875 23.6484375 C10.60626953 24.29361328 10.07582031 24.93878906 9.52929688 25.60351562 C5.55479062 30.2119922 5.55479062 30.2119922 1.9921875 30.81640625 C-0.17578125 30.3359375 -0.17578125 30.3359375 -1.17578125 29.3359375 C-0.57578125 22.7359375 -0.57578125 22.7359375 1.82421875 20.3359375 C-15.03833903 20.39280953 -28.54650556 27.06112661 -40.80078125 38.4609375 C-49.29691004 47.31732617 -54.26751609 57.85540859 -58.17578125 69.3359375 C-57.58152344 68.84609375 -56.98726563 68.35625 -56.375 67.8515625 C-53.5029654 65.87225624 -51.59202608 66.03227129 -48.17578125 66.3359375 C-47.17578125 67.3359375 -47.17578125 67.3359375 -46.6640625 69.53125 C-47.48654329 74.03919815 -50.75720201 75.67494131 -54.36328125 78.2109375 C-55.03681641 78.72140625 -55.71035156 79.231875 -56.40429688 79.7578125 C-61.32766929 83.31224722 -61.32766929 83.31224722 -64.97265625 83.4140625 C-67.70995791 82.0745319 -68.6595322 80.805539 -70.23828125 78.2109375 C-70.73585938 77.39882813 -71.2334375 76.58671875 -71.74609375 75.75 C-72.21789062 74.95335937 -72.6896875 74.15671875 -73.17578125 73.3359375 C-73.60632813 72.68367188 -74.036875 72.03140625 -74.48046875 71.359375 C-76.27497912 68.55003808 -77.2082595 66.83393735 -76.98828125 63.4609375 C-76.17578125 61.3359375 -76.17578125 61.3359375 -75.17578125 60.3359375 C-72.80078125 60.0234375 -72.80078125 60.0234375 -70.17578125 60.3359375 C-68.36328125 62.1484375 -68.36328125 62.1484375 -67.17578125 64.3359375 C-67.17578125 65.3259375 -67.17578125 66.3159375 -67.17578125 67.3359375 C-66.51578125 67.3359375 -65.85578125 67.3359375 -65.17578125 67.3359375 C-65.03462891 65.59570312 -65.03462891 65.59570312 -64.890625 63.8203125 C-64.31305198 59.26779588 -62.82999109 55.64054368 -60.73828125 51.5859375 C-60.38338623 50.89419434 -60.02849121 50.20245117 -59.6628418 49.48974609 C-51.23787347 33.6904225 -36.52178415 20.10395759 -19.19091797 14.71923828 C-12.5983675 12.85284717 -5.94718829 11.39462498 0.82421875 10.3359375 C-0.82578125 9.0159375 -2.47578125 7.6959375 -4.17578125 6.3359375 C-3.12516812 0.48252147 -3.12516812 0.48252147 0 0 Z " fill="#4EE374" transform="translate(485.17578125,399.6640625)"/>
<path d="M0 0 C1.06669922 0.00064453 2.13339844 0.00128906 3.23242188 0.00195312 C7.9138406 0.02830257 12.23131438 0.148794 16.8125 1.1875 C16.8125 1.8475 16.8125 2.5075 16.8125 3.1875 C18.7925 3.1875 20.7725 3.1875 22.8125 3.1875 C22.8125 3.8475 22.8125 4.5075 22.8125 5.1875 C23.451875 5.27 24.09125 5.3525 24.75 5.4375 C38.54238902 8.81522792 49.0027431 19.69831953 56.8125 31.1875 C61.8125 39.65938264 61.8125 39.65938264 61.8125 45.1875 C62.4725 45.5175 63.1325 45.8475 63.8125 46.1875 C64.54325648 48.5015622 65.21388258 50.83578869 65.8125 53.1875 C66.410625 52.8575 67.00875 52.5275 67.625 52.1875 C69.8125 51.1875 69.8125 51.1875 72.8125 51.1875 C69.11159479 55.1127025 65.26290344 58.13330156 60.8125 61.1875 C60.1525 60.8575 59.4925 60.5275 58.8125 60.1875 C58.35546875 57.88671875 58.35546875 57.88671875 58 54.875 C55.56775695 39.30495928 47.20302504 26.71384885 34.75390625 17.15625 C22.20696143 8.7582949 5.98884408 3.77018575 -9.13574219 6.54492188 C-16.67678262 8.14184808 -24.06537563 10.21994818 -31.1875 13.1875 C-30.8575 10.8775 -30.5275 8.5675 -30.1875 6.1875 C-28.69042061 5.55553616 -27.18963297 4.93235607 -25.6875 4.3125 C-24.8521875 3.96445312 -24.016875 3.61640625 -23.15625 3.2578125 C-15.23682792 0.40265243 -8.37337452 -0.09718639 0 0 Z " fill="#53E66F" transform="translate(543.1875,429.8125)"/>
<path d="M0 0 C0.17015625 0.90621094 0.3403125 1.81242188 0.515625 2.74609375 C3.82475044 19.37972959 10.8930187 33.96108259 24.94140625 44.12890625 C40.83902908 54.51688363 55.48847511 54.75956367 74 55 C74 55.33 74 55.66 74 56 C73.195625 56.12375 72.39125 56.2475 71.5625 56.375 C70.716875 56.58125 69.87125 56.7875 69 57 C68.505 57.99 68.505 57.99 68 59 C69.98 59.495 69.98 59.495 72 60 C72 60.66 72 61.32 72 62 C47.54347826 62.48913043 47.54347826 62.48913043 36 58 C36 57.34 36 56.68 36 56 C33.03 58.31 30.06 60.62 27 63 C26.34 62.34 25.68 61.68 25 61 C26.4540625 60.071875 26.4540625 60.071875 27.9375 59.125 C31.02835362 57.34321154 31.02835362 57.34321154 32 55 C31.21625 54.814375 30.4325 54.62875 29.625 54.4375 C24.56948069 52.4327251 20.1687768 49.49320428 16 46 C16 45.34 16 44.68 16 44 C15.39929688 43.731875 14.79859375 43.46375 14.1796875 43.1875 C4.64057212 37.99056259 -1.47564754 23.77385814 -4.6875 13.8828125 C-5.15565951 12.26376085 -5.58306553 10.63299333 -6 9 C-6.99 9.495 -6.99 9.495 -8 10 C-7.03584817 6.14339267 -4.98483941 0 0 0 Z " fill="#53E978" transform="translate(425,551)"/>
<path d="M0 0 C0.78310547 0.54720703 0.78310547 0.54720703 1.58203125 1.10546875 C1.08203125 2.93359375 1.08203125 2.93359375 -0.41796875 5.10546875 C-3.12244091 6.21290347 -5.62280615 7.07849173 -8.41796875 7.85546875 C-9.1553125 8.07589844 -9.89265625 8.29632813 -10.65234375 8.5234375 C-16.03714577 10.10546875 -16.03714577 10.10546875 -18.41796875 10.10546875 C-18.35609375 11.28109375 -18.29421875 12.45671875 -18.23046875 13.66796875 C-18.61684692 16.8541887 -19.10157373 17.84527178 -21.6171875 19.9140625 C-23.53037248 21.06944478 -25.46121315 22.19595872 -27.40625 23.296875 C-31.91804689 26.00629388 -35.61708756 29.4922854 -39.41796875 33.10546875 C-40.73796875 31.45546875 -42.05796875 29.80546875 -43.41796875 28.10546875 C-40.07658374 23.91438446 -37.19763049 20.6701653 -32.41796875 18.10546875 C-26.6423506 14.4015274 -26.6423506 14.4015274 -22.41796875 9.10546875 C-22.41796875 8.11546875 -22.41796875 7.12546875 -22.41796875 6.10546875 C-20.43796875 6.10546875 -18.45796875 6.10546875 -16.41796875 6.10546875 C-16.08796875 5.11546875 -15.75796875 4.12546875 -15.41796875 3.10546875 C-12.6171875 1.8671875 -12.6171875 1.8671875 -9.10546875 0.79296875 C-7.37876953 0.24189453 -7.37876953 0.24189453 -5.6171875 -0.3203125 C-2.41796875 -0.89453125 -2.41796875 -0.89453125 0 0 Z " fill="#56E874" transform="translate(531.41796875,425.89453125)"/>
<path d="M0 0 C1.06669922 0.00064453 2.13339844 0.00128906 3.23242188 0.00195312 C7.9138406 0.02830257 12.23131438 0.148794 16.8125 1.1875 C16.4375 3.125 16.4375 3.125 15.8125 5.1875 C13.45281021 6.3673449 12.20577567 6.24931378 9.5859375 6.14453125 C-5.12125246 5.73236049 -17.49166305 7.48090127 -31.1875 13.1875 C-30.8575 10.8775 -30.5275 8.5675 -30.1875 6.1875 C-28.69042061 5.55553616 -27.18963297 4.93235607 -25.6875 4.3125 C-24.8521875 3.96445312 -24.016875 3.61640625 -23.15625 3.2578125 C-15.23682792 0.40265243 -8.37337452 -0.09718639 0 0 Z " fill="#4DE66F" transform="translate(543.1875,429.8125)"/>
<path d="M0 0 C2.0078125 3.75 2.0078125 3.75 1.9375 6 C0.59297218 8.86832601 -1.48065002 10.11048751 -4 12 C-4.845625 12.86625 -5.69125 13.7325 -6.5625 14.625 C-10.32624867 18.2922423 -10.32624867 18.2922423 -13 19 C-16.75 18.125 -16.75 18.125 -20 17 C-20.47050781 17.6496875 -20.94101562 18.299375 -21.42578125 18.96875 C-22.35970703 20.22171875 -22.35970703 20.22171875 -23.3125 21.5 C-24.23482422 22.75296875 -24.23482422 22.75296875 -25.17578125 24.03125 C-25.77777344 24.6809375 -26.37976563 25.330625 -27 26 C-27.99 26 -28.98 26 -30 26 C-29.43410156 25.30132813 -28.86820312 24.60265625 -28.28515625 23.8828125 C-27.55167969 22.97273437 -26.81820313 22.06265625 -26.0625 21.125 C-25.33160156 20.22007812 -24.60070312 19.31515625 -23.84765625 18.3828125 C-21.9963748 16.15497253 -21.9963748 16.15497253 -21 14 C-22.65 14 -24.3 14 -26 14 C-24.94921875 11.1328125 -24.94921875 11.1328125 -23 8 C-19.70703125 6.6796875 -19.70703125 6.6796875 -15.8125 5.875 C-10.03424655 4.57782689 -5.15266259 2.94437862 0 0 Z " fill="#4CE56F" transform="translate(518,597)"/>
<path d="M0 0 C0.17015625 0.90621094 0.3403125 1.81242188 0.515625 2.74609375 C2.82940809 14.37654598 6.73856851 23.00258105 13 33 C12.01 33.495 12.01 33.495 11 34 C11 33.34 11 32.68 11 32 C10.34 32 9.68 32 9 32 C8.34 33.32 7.68 34.64 7 36 C1.03046186 27.6918799 -3.56139596 18.97610745 -6 9 C-6.99 9.495 -6.99 9.495 -8 10 C-7.03584817 6.14339267 -4.98483941 0 0 0 Z " fill="#58EA76" transform="translate(425,551)"/>
<path d="M0 0 C0.63526611 0.20858643 1.27053223 0.41717285 1.92504883 0.63208008 C9.56303578 2.94905269 16.73591905 3.53123648 24.6875 3.6875 C26.47317383 3.73874023 26.47317383 3.73874023 28.29492188 3.79101562 C31.19652018 3.87258666 34.0978508 3.94202748 37 4 C37 4.33 37 4.66 37 5 C36.195625 5.12375 35.39125 5.2475 34.5625 5.375 C33.716875 5.58125 32.87125 5.7875 32 6 C31.67 6.66 31.34 7.32 31 8 C32.32 8.33 33.64 8.66 35 9 C35 9.66 35 10.32 35 11 C8.84441939 11.52311161 8.84441939 11.52311161 -1 7 C-2 4 -2 4 -1.0625 1.8125 C-0.5365625 0.9153125 -0.5365625 0.9153125 0 0 Z " fill="#4EDE75" transform="translate(462,602)"/>
<path d="M0 0 C2.30854925 2.12333613 3.78412576 4.13612842 5.1875 6.9375 C5.53167969 7.60652344 5.87585938 8.27554687 6.23046875 8.96484375 C7 11 7 11 7 15 C7.66 15.33 8.32 15.66 9 16 C9.73075648 18.3140622 10.40138258 20.64828869 11 23 C11.598125 22.67 12.19625 22.34 12.8125 22 C15 21 15 21 18 21 C14.29909479 24.9252025 10.45040344 27.94580156 6 31 C5.34 30.67 4.68 30.34 4 30 C3.54296875 27.69921875 3.54296875 27.69921875 3.1875 24.6875 C2.31695244 18.77768525 0.48501966 13.81960977 -1.9765625 8.3984375 C-3 6 -3 6 -3 4 C-2.01 3.34 -1.02 2.68 0 2 C0 1.34 0 0.68 0 0 Z " fill="#59E87D" transform="translate(598,460)"/>
<path d="M0 0 C0.52207031 0.36480469 1.04414062 0.72960937 1.58203125 1.10546875 C1.05859375 2.953125 1.05859375 2.953125 -0.41796875 5.10546875 C-2.99303148 6.09247792 -5.39059394 6.8554933 -8.04296875 7.54296875 C-14.27018565 9.29224933 -19.03725128 11.44658087 -24.41796875 15.10546875 C-25.07796875 14.77546875 -25.73796875 14.44546875 -26.41796875 14.10546875 C-25.75796875 13.34234375 -25.09796875 12.57921875 -24.41796875 11.79296875 C-22.11946337 9.26268936 -22.11946337 9.26268936 -22.41796875 6.10546875 C-20.43796875 6.10546875 -18.45796875 6.10546875 -16.41796875 6.10546875 C-16.08796875 5.11546875 -15.75796875 4.12546875 -15.41796875 3.10546875 C-12.6171875 1.8671875 -12.6171875 1.8671875 -9.10546875 0.79296875 C-7.95433594 0.42558594 -6.80320312 0.05820312 -5.6171875 -0.3203125 C-2.41796875 -0.89453125 -2.41796875 -0.89453125 0 0 Z " fill="#96EAA9" transform="translate(531.41796875,425.89453125)"/>
<path d="M0 0 C0.66 0.33 1.32 0.66 2 1 C1.030625 1.598125 0.06125 2.19625 -0.9375 2.8125 C-4.23052042 4.71127509 -4.23052042 4.71127509 -5 8 C-7.05370115 10.22037834 -9.21465942 11.81384736 -12 13 C-15.01538226 12.83189507 -17.12123193 12.06059876 -20 11 C-20.47050781 11.6496875 -20.94101562 12.299375 -21.42578125 12.96875 C-22.04839844 13.8040625 -22.67101562 14.639375 -23.3125 15.5 C-24.23482422 16.75296875 -24.23482422 16.75296875 -25.17578125 18.03125 C-25.77777344 18.6809375 -26.37976563 19.330625 -27 20 C-27.99 20 -28.98 20 -30 20 C-29.36191406 19.22914063 -28.72382813 18.45828125 -28.06640625 17.6640625 C-26.82697266 16.15972656 -26.82697266 16.15972656 -25.5625 14.625 C-24.73878906 13.62726562 -23.91507812 12.62953125 -23.06640625 11.6015625 C-21.01584166 9.20344705 -21.01584166 9.20344705 -20 7 C-17.39961615 6.08325451 -14.83257232 5.26366917 -12.1875 4.5 C-6.77366991 2.97069055 -6.77366991 2.97069055 -1.61328125 0.78125 C-1.08089844 0.5234375 -0.54851563 0.265625 0 0 Z " fill="#A2E9B2" transform="translate(518,603)"/>
<path d="M0 0 C-1.0828125 1.2065625 -1.0828125 1.2065625 -2.1875 2.4375 C-4.26913543 4.91342849 -5.78268539 7.37160931 -7.25 10.25 C-10.69425002 16.73135227 -15.84521827 21.84521827 -21 27 C-21.99 26.67 -22.98 26.34 -24 26 C-23.45730469 25.54109375 -22.91460938 25.0821875 -22.35546875 24.609375 C-21.64003906 23.99578125 -20.92460938 23.3821875 -20.1875 22.75 C-19.47980469 22.14671875 -18.77210938 21.5434375 -18.04296875 20.921875 C-14.09198731 17.20508175 -12.46580098 14.47316156 -12 9 C-12.33 8.01 -12.66 7.02 -13 6 C-11.4375 2.875 -11.4375 2.875 -9 0 C-5.34563723 -1.11868248 -3.6321989 -1.21073297 0 0 Z " fill="#76E693" transform="translate(605,527)"/>
<path d="M0 0 C0.33 0.99 0.66 1.98 1 3 C1.66 3.33 2.32 3.66 3 4 C3.73075648 6.3140622 4.40138258 8.64828869 5 11 C5.598125 10.67 6.19625 10.34 6.8125 10 C9 9 9 9 12 9 C8.29909479 12.9252025 4.45040344 15.94580156 0 19 C-0.66 18.67 -1.32 18.34 -2 18 C-1.85795259 16.41632253 -1.71119847 14.83306682 -1.5625 13.25 C-1.48128906 12.36828125 -1.40007813 11.4865625 -1.31640625 10.578125 C-1 8 -1 8 -0.46484375 5.921875 C0.15672741 3.68156642 0.15672741 3.68156642 0 0 Z " fill="#5FE879" transform="translate(604,472)"/>
<path d="M0 0 C0.66 0.33 1.32 0.66 2 1 C1.67 1.99 1.34 2.98 1 4 C1.66 4.33 2.32 4.66 3 5 C2.10796875 5.74765625 1.2159375 6.4953125 0.296875 7.265625 C-0.88549812 8.26031985 -2.06778525 9.25511692 -3.25 10.25 C-3.83652344 10.74113281 -4.42304687 11.23226562 -5.02734375 11.73828125 C-8.15621479 14.37497032 -11.15952621 17.0470322 -14 20 C-14.66 19.67 -15.32 19.34 -16 19 C-15.34644531 18.14921875 -15.34644531 18.14921875 -14.6796875 17.28125 C-13.05469157 15.07427878 -11.59132265 12.81441197 -10.125 10.5 C-7.7952127 6.98213708 -5.60788398 4.30503699 -2 2 C-1.34 2 -0.68 2 0 2 C0 1.34 0 0.68 0 0 Z " fill="#5CED85" transform="translate(576,552)"/>
<path d="M0 0 C2.24606427 1.77444972 2.95081002 2.58352485 3.29296875 5.48046875 C3.25816406 6.37378906 3.22335937 7.26710938 3.1875 8.1875 C3.16042969 9.08855469 3.13335938 9.98960937 3.10546875 10.91796875 C3.07066406 11.60503906 3.03585937 12.29210937 3 13 C2.01 12.67 1.02 12.34 0 12 C0 11.34 0 10.68 0 10 C-0.66 10 -1.32 10 -2 10 C-2 9.01 -2 8.02 -2 7 C-3.65 7.66 -5.3 8.32 -7 9 C-6.01 10.485 -6.01 10.485 -5 12 C-7.475 11.01 -7.475 11.01 -10 10 C-8.78934835 6.36804504 -7.46308874 5.57103808 -4.4375 3.3125 C-3.61121094 2.68988281 -2.78492188 2.06726563 -1.93359375 1.42578125 C-1.29550781 0.95527344 -0.65742187 0.48476563 0 0 Z " fill="#A1E6B6" transform="translate(580,426)"/>
<path d="M0 0 C0 0.66 0 1.32 0 2 C1.65 1.34 3.3 0.68 5 0 C1.56072281 5.47157735 -3.3047663 7.44583985 -9 10 C-9 9.34 -9 8.68 -9 8 C-9.66 7.67 -10.32 7.34 -11 7 C-10.74609375 5.109375 -10.74609375 5.109375 -10 3 C-8.22265625 1.953125 -8.22265625 1.953125 -6.0625 1.25 C-5.35222656 1.00765625 -4.64195312 0.7653125 -3.91015625 0.515625 C-2 0 -2 0 0 0 Z " fill="#64EB88" transform="translate(529,593)"/>
<path d="M0 0 C0.99 0.33 1.98 0.66 3 1 C1.35 2.32 -0.3 3.64 -2 5 C-2.66 4.34 -3.32 3.68 -4 3 C-2.1875 1.4375 -2.1875 1.4375 0 0 Z M-3 5 C-1.68 5.99 -0.36 6.98 1 8 C-0.88795796 9.80063614 -2.78456911 11.59030514 -4.6875 13.375 C-5.48317383 14.13683594 -5.48317383 14.13683594 -6.29492188 14.9140625 C-9.35912035 17.77147457 -11.9106645 19.74057571 -16 21 C-15.29875 20.360625 -14.5975 19.72125 -13.875 19.0625 C-10.83272017 16.04622256 -8.6256348 12.58905727 -6.33203125 8.98828125 C-5 7 -5 7 -3 5 Z " fill="#64E987" transform="translate(551,571)"/>
<path d="M0 0 C5.75 0.875 5.75 0.875 8 2 C6.62968895 7.65253308 2.32310587 10.5113541 -2 14 C-2.66 13.34 -3.32 12.68 -4 12 C-3.030625 11.38125 -2.06125 10.7625 -1.0625 10.125 C2.02835362 8.34321154 2.02835362 8.34321154 3 6 C2.030625 5.71125 1.06125 5.4225 0.0625 5.125 C-3 4 -3 4 -4 2 C-2.68 2.33 -1.36 2.66 0 3 C0 2.01 0 1.02 0 0 Z " fill="#5DEA81" transform="translate(454,600)"/>
<path d="M0 0 C0.7115625 0.24105469 1.423125 0.48210938 2.15625 0.73046875 C1.38667969 1.07464844 1.38667969 1.07464844 0.6015625 1.42578125 C-2.77775242 3.22880231 -5.84464468 5.39604994 -8.96875 7.60546875 C-9.60167969 8.03988281 -10.23460937 8.47429688 -10.88671875 8.921875 C-15.31055116 12.02683929 -15.31055116 12.02683929 -17.84375 16.73046875 C-18.17375 15.08046875 -18.50375 13.43046875 -18.84375 11.73046875 C-17.17914475 10.39456272 -15.51198046 9.06184498 -13.84375 7.73046875 C-12.49796875 6.65345703 -12.49796875 6.65345703 -11.125 5.5546875 C-10.2071875 4.84957031 -9.289375 4.14445313 -8.34375 3.41796875 C-7.4259375 2.69996094 -6.508125 1.98195313 -5.5625 1.2421875 C-2.84375 -0.26953125 -2.84375 -0.26953125 0 0 Z " fill="#D2F6DB" transform="translate(606.84375,553.26953125)"/>
<path d="M0 0 C1.3805087 3.76668598 0.59568159 6.44789173 -0.4375 10.25 C-0.72496094 11.32765625 -1.01242187 12.4053125 -1.30859375 13.515625 C-1.65083984 14.74539063 -1.65083984 14.74539063 -2 16 C-3.20628008 13.66785852 -4.1654738 11.50357861 -5 9 C-5.99 9.495 -5.99 9.495 -7 10 C-5.76075855 5.04303419 -4.21422242 2.88341534 0 0 Z " fill="#6EE78E" transform="translate(424,551)"/>
<path d="M0 0 C0.52207031 0.36480469 1.04414062 0.72960937 1.58203125 1.10546875 C1.25203125 1.76546875 0.92203125 2.42546875 0.58203125 3.10546875 C-2.11328125 3.6328125 -2.11328125 3.6328125 -5.54296875 4.04296875 C-9.4774319 4.57791769 -12.94537286 5.08721208 -16.54296875 6.79296875 C-19.41796875 8.10546875 -19.41796875 8.10546875 -22.41796875 7.10546875 C-22.41796875 6.77546875 -22.41796875 6.44546875 -22.41796875 6.10546875 C-20.43796875 6.10546875 -18.45796875 6.10546875 -16.41796875 6.10546875 C-16.08796875 5.11546875 -15.75796875 4.12546875 -15.41796875 3.10546875 C-12.6171875 1.8671875 -12.6171875 1.8671875 -9.10546875 0.79296875 C-7.95433594 0.42558594 -6.80320312 0.05820312 -5.6171875 -0.3203125 C-2.41796875 -0.89453125 -2.41796875 -0.89453125 0 0 Z " fill="#AAEDBC" transform="translate(531.41796875,425.89453125)"/>
<path d="M0 0 C0.33 0 0.66 0 1 0 C1.3125 2.75 1.3125 2.75 1 6 C-1.1875 8.125 -1.1875 8.125 -4 10 C-4.845625 10.70125 -5.69125 11.4025 -6.5625 12.125 C-8.69630703 13.76639003 -10.47817667 15.07533144 -13 16 C-13.99 15.67 -14.98 15.34 -16 15 C-14.22970554 13.70759488 -12.45874502 12.41610207 -10.6875 11.125 C-9.70136719 10.40570313 -8.71523438 9.68640625 -7.69921875 8.9453125 C-5.82476885 7.5944065 -3.92247007 6.28164671 -2 5 C-0.79549696 2.44816596 -0.79549696 2.44816596 0 0 Z " fill="#D9F7DE" transform="translate(439,467)"/>
<path d="M0 0 C0.99 0.33 1.98 0.66 3 1 C4.1875 3.5625 4.1875 3.5625 5 6 C5.33 5.34 5.66 4.68 6 4 C6.66 4 7.32 4 8 4 C9.0070238 9.03511899 8.97387813 12.23947038 7 17 C4.83034602 13.74551903 3.63856738 10.4746415 2.375 6.8125 C2.14554688 6.15830078 1.91609375 5.50410156 1.6796875 4.83007812 C1.11604856 3.22135865 0.55752016 1.61085023 0 0 Z " fill="#47E96D" transform="translate(596,467)"/>
<path d="M0 0 C0.68359375 1.796875 0.68359375 1.796875 1 4 C-0.69927236 6.38225965 -2.8067842 8.03058173 -5 10 C1.93 10.495 1.93 10.495 9 11 C9 11.33 9 11.66 9 12 C3.39 12 -2.22 12 -8 12 C-6.38617965 7.96544911 -5.59503354 6.20318936 -2.875 3.1875 C-2.33617187 2.58292969 -1.79734375 1.97835938 -1.2421875 1.35546875 C-0.83226562 0.90816406 -0.42234375 0.46085937 0 0 Z " fill="#3B9994" transform="translate(540,418)"/>
<path d="M0 0 C0.66 0 1.32 0 2 0 C1.67 1.98 1.34 3.96 1 6 C1.99 5.67 2.98 5.34 4 5 C3.67 6.32 3.34 7.64 3 9 C0.03 9.66 -2.94 10.32 -6 11 C-5.67 10.34 -5.34 9.68 -5 9 C-4.34 9 -3.68 9 -3 9 C-2.01 6.03 -1.02 3.06 0 0 Z " fill="#6BE88D" transform="translate(428,506)"/>
<path d="M0 0 C0 4.15560231 -2.2820452 5.84099329 -5 8.6875 C-5.47695313 9.19861328 -5.95390625 9.70972656 -6.4453125 10.23632812 C-7.62359915 11.49709484 -8.81095253 12.74937686 -10 14 C-10.66 13.34 -11.32 12.68 -12 12 C-10.37860535 10.18415766 -8.75313264 8.3722838 -7.125 6.5625 C-6.66480469 6.04623047 -6.20460938 5.52996094 -5.73046875 4.99804688 C-2.2265625 1.11328125 -2.2265625 1.11328125 0 0 Z " fill="#DDF8E3" transform="translate(537,608)"/>
<path d="M0 0 C0.66 0.66 1.32 1.32 2 2 C1.01 2.66 0.02 3.32 -1 4 C-0.67 2.68 -0.34 1.36 0 0 Z M-3 4 C-2.34 4.33 -1.68 4.66 -1 5 C-4.96 8.96 -8.92 12.92 -13 17 C-13.66 16.67 -14.32 16.34 -15 16 C-11 12 -7 8 -3 4 Z " fill="#A4ECB4" transform="translate(443,484)"/>
<path d="M0 0 C2.24606427 1.77444972 2.95081002 2.58352485 3.29296875 5.48046875 C3.25816406 6.37378906 3.22335937 7.26710938 3.1875 8.1875 C3.16042969 9.08855469 3.13335938 9.98960937 3.10546875 10.91796875 C3.07066406 11.60503906 3.03585937 12.29210937 3 13 C2.67 13 2.34 13 2 13 C2 11.35 2 9.7 2 8 C1.34 8 0.68 8 0 8 C-1.33333333 6.66666667 -2.66666667 5.33333333 -4 4 C-2.68 2.68 -1.36 1.36 0 0 Z " fill="#BDEFCD" transform="translate(580,426)"/>
<path d="M0 0 C0.99 0.33 1.98 0.66 3 1 C-0.49359465 4.59634744 -4.11098131 7.83451967 -8 11 C-8.66 10.67 -9.32 10.34 -10 10 C-6.7 6.7 -3.4 3.4 0 0 Z " fill="#B3F0C2" transform="translate(491,440)"/>
<path d="M0 0 C0.66 0 1.32 0 2 0 C1.67 2.31 1.34 4.62 1 7 C0.01 7.33 -0.98 7.66 -2 8 C-3.20882096 10.00016466 -3.20882096 10.00016466 -4 12 C-4.33 11.34 -4.66 10.68 -5 10 C-4.00390625 7.6171875 -4.00390625 7.6171875 -2.5625 4.875 C-1.85287109 3.50988281 -1.85287109 3.50988281 -1.12890625 2.1171875 C-0.75636719 1.41851563 -0.38382812 0.71984375 0 0 Z " fill="#2961A5" transform="translate(342,581)"/>
<path d="M0 0 C0.66 0.33 1.32 0.66 2 1 C1.0919838 2.13199353 0.17316174 3.25532363 -0.75 4.375 C-1.26046875 5.00148438 -1.7709375 5.62796875 -2.296875 6.2734375 C-4.09511518 8.09642411 -5.69940438 8.92451831 -8 10 C-8.66 10.66 -9.32 11.32 -10 12 C-10.66 11.34 -11.32 10.68 -12 10 C-10.82630859 9.04287109 -10.82630859 9.04287109 -9.62890625 8.06640625 C-8.61699219 7.24011719 -7.60507812 6.41382813 -6.5625 5.5625 C-5.55316406 4.73878906 -4.54382813 3.91507813 -3.50390625 3.06640625 C-1.70216039 1.58798996 -1.70216039 1.58798996 0 0 Z " fill="#C6ECD1" transform="translate(416,557)"/>
<path d="M0 0 C0.66 0.33 1.32 0.66 2 1 C0.63823831 2.47070263 -0.74007683 3.92608698 -2.125 5.375 C-2.89070313 6.18710937 -3.65640625 6.99921875 -4.4453125 7.8359375 C-7.22448161 10.19015721 -9.50506564 11.07814775 -13 12 C-9.89851315 8.01237405 -7.46449274 5.46721967 -3 3 C-1.24850835 1.41754725 -1.24850835 1.41754725 0 0 Z " fill="#7AEA94" transform="translate(486,454)"/>
<path d="M0 0 C2 3 2 3 3 5 C3.8971875 4.505 3.8971875 4.505 4.8125 4 C7 3 7 3 10 3 C7.75 5.5 7.75 5.5 5 8 C3.68 8 2.36 8 1 8 C0.67 5.36 0.34 2.72 0 0 Z " fill="#A3E7B4" transform="translate(606,478)"/>
<path d="M0 0 C0.66 0.33 1.32 0.66 2 1 C0.625 3 0.625 3 -1 5 C-1.66 5 -2.32 5 -3 5 C-3.33 5.99 -3.66 6.98 -4 8 C-4.99 7.67 -5.98 7.34 -7 7 C-4.66666667 4.66666667 -2.33333333 2.33333333 0 0 Z M-9 7 C-8.34 7.33 -7.68 7.66 -7 8 C-7.99 8 -8.98 8 -10 8 C-9.67 7.67 -9.34 7.34 -9 7 Z " fill="#2F808C" transform="translate(459,607)"/>
<path d="M0 0 C0 0.99 0 1.98 0 3 C-1.96891808 4.78992552 -3.88550051 6.40638941 -6 8 C-7.175625 8.8971875 -7.175625 8.8971875 -8.375 9.8125 C-8.91125 10.204375 -9.4475 10.59625 -10 11 C-10.66 10.67 -11.32 10.34 -12 10 C-8.04 6.7 -4.08 3.4 0 0 Z " fill="#4EE16D" transform="translate(541,579)"/>
<path d="M0 0 C0.33 0 0.66 0 1 0 C1.3125 2.75 1.3125 2.75 1 6 C-1.5 8.375 -1.5 8.375 -4 10 C-4.66 9.67 -5.32 9.34 -6 9 C-5.38125 8.443125 -4.7625 7.88625 -4.125 7.3125 C-1.93893621 4.93354822 -1.01214301 3.03642904 0 0 Z " fill="#E4F8E8" transform="translate(439,467)"/>
<path d="M0 0 C0.66 0.33 1.32 0.66 2 1 C-0.85276137 3.93200474 -3.65079784 6.64315404 -7 9 C-5.64978174 4.58110387 -3.73884332 2.65654657 0 0 Z " fill="#B6F1C3" transform="translate(516,609)"/>
<path d="M0 0 C0.66 0 1.32 0 2 0 C1.52797514 4.24822374 -0.96655518 6.19989709 -4 9 C-4.66 8.67 -5.32 8.34 -6 8 C-5 6.66666667 -4 5.33333333 -3 4 C-2.484375 3.2575 -1.96875 2.515 -1.4375 1.75 C-0.963125 1.1725 -0.48875 0.595 0 0 Z " fill="#6EEA89" transform="translate(566,563)"/>
<path d="M0 0 C0.33 1.32 0.66 2.64 1 4 C-1.97 6.475 -1.97 6.475 -5 9 C-4.5206753 4.68607774 -3.2542015 2.83430453 0 0 Z " fill="#3E899E" transform="translate(540,418)"/>
<path d="M0 0 C-1.1858237 3.37503669 -2.27573689 5.64722731 -5 8 C-5.33 7.01 -5.66 6.02 -6 5 C-5.34 5 -4.68 5 -4 5 C-4.33 3.68 -4.66 2.36 -5 1 C-2 0 -2 0 0 0 Z " fill="#EC8924" transform="translate(595,528)"/>
<path d="M0 0 C1.2065625 0.0309375 1.2065625 0.0309375 2.4375 0.0625 C1.7775 1.7125 1.1175 3.3625 0.4375 5.0625 C-0.5525 4.7325 -1.5425 4.4025 -2.5625 4.0625 C-2.8925 3.0725 -3.2225 2.0825 -3.5625 1.0625 C-2.5625 0.0625 -2.5625 0.0625 0 0 Z " fill="#4CD781" transform="translate(598.5625,526.9375)"/>
<path d="M0 0 C2.31 0 4.62 0 7 0 C6.34 1.65 5.68 3.3 5 5 C2.5 3.625 2.5 3.625 0 2 C0 1.34 0 0.68 0 0 Z " fill="#DCF6E2" transform="translate(541,629)"/>
<path d="M0 0 C1.32 0.66 2.64 1.32 4 2 C0.535 4.97 0.535 4.97 -3 8 C-3 7.01 -3 6.02 -3 5 C-2.34 5 -1.68 5 -1 5 C-0.67 3.35 -0.34 1.7 0 0 Z " fill="#2C6D9B" transform="translate(486,620)"/>
<path d="M0 0 C0.33 1.32 0.66 2.64 1 4 C-0.65 5.32 -2.3 6.64 -4 8 C-4.66 7.67 -5.32 7.34 -6 7 C-4.02 4.69 -2.04 2.38 0 0 Z " fill="#2860A5" transform="translate(352,569)"/>
<path d="M0 0 C0.8125 1.6875 0.8125 1.6875 1 4 C-1.4375 6.75 -1.4375 6.75 -4 9 C-3.46930939 5.17902761 -2.50298434 2.93828597 0 0 Z " fill="#5EED80" transform="translate(434,499)"/>
<path d="M0 0 C3.60296594 -0.41176754 4.78402067 -0.1535853 7.8125 2 C8.534375 2.66 9.25625 3.32 10 4 C6.62294375 3.46274105 3.303314 2.88935377 0 2 C0 1.34 0 0.68 0 0 Z " fill="#3DBD74" transform="translate(461,607)"/>
<path d="M0 0 C0.99 1.32 1.98 2.64 3 4 C2.34 5.32 1.68 6.64 1 8 C-2 3.25 -2 3.25 -2 1 C-1.34 0.67 -0.68 0.34 0 0 Z " fill="#2D64A6" transform="translate(342,644)"/>
<path d="M0 0 C0.66 0 1.32 0 2 0 C0.49776416 4.20626034 -2.28550034 5.73900021 -6 8 C-6 7.01 -6 6.02 -6 5 C-4.36368108 3.95107762 -2.69514137 2.95093297 -1 2 C-0.67 1.34 -0.34 0.68 0 0 Z " fill="#A9DEBD" transform="translate(457,606)"/>
<path d="M0 0 C0.99 0.33 1.98 0.66 3 1 C1.35 2.65 -0.3 4.3 -2 6 C-2.66 5.34 -3.32 4.68 -4 4 C-2.68 3.34 -1.36 2.68 0 2 C0 1.34 0 0.68 0 0 Z " fill="#F08C24" transform="translate(571,551)"/>
<path d="M0 0 C0.99 0.33 1.98 0.66 3 1 C-2.75 6 -2.75 6 -5 6 C-5 5.34 -5 4.68 -5 4 C-4.34 4 -3.68 4 -3 4 C-3 3.34 -3 2.68 -3 2 C-2.01 1.34 -1.02 0.68 0 0 Z " fill="#CDECDB" transform="translate(620,475)"/>
<path d="M0 0 C0.66 0.33 1.32 0.66 2 1 C2.625 3.0625 2.625 3.0625 3 5 C1.68 4.67 0.36 4.34 -1 4 C-1 1 -1 1 0 0 Z " fill="#47EB6F" transform="translate(488,454)"/>
<path d="M0 0 C0 3 0 3 -2 5.1875 C-2.66 5.785625 -3.32 6.38375 -4 7 C-4.99 6.67 -5.98 6.34 -7 6 C-4.69 4.02 -2.38 2.04 0 0 Z " fill="#D8E7E5" transform="translate(484,627)"/>
</svg>
