<?xml version="1.0" encoding="UTF-8"?>
<svg version="1.1" xmlns="http://www.w3.org/2000/svg" width="500" height="500">
<path d="M0 0 C0 0.66 0 1.32 0 2 C0.59683594 2.2475 1.19367188 2.495 1.80859375 2.75 C7.18317951 5.81571737 10.02112271 12.37786206 11.875 18.0625 C14.32191928 27.50061723 12.67759995 35.44223791 7.9375 43.875 C6.65853818 45.93784165 5.3463408 47.9804888 4 50 C3.34 50 2.68 50 2 50 C2 50.66 2 51.32 2 52 C0.1015625 53.7265625 0.1015625 53.7265625 -2.375 55.625 C-3.59316406 56.57246094 -3.59316406 56.57246094 -4.8359375 57.5390625 C-7 59 -7 59 -9 59 C-9 59.66 -9 60.32 -9 61 C-10.77655282 62.50710897 -12.62405037 63.9310767 -14.5 65.3125 C-15.04664307 65.71694336 -15.59328613 66.12138672 -16.15649414 66.53808594 C-19.17406818 68.7483402 -22.23197852 70.82422606 -25.4375 72.75 C-30.01692722 75.53171819 -33.18056537 78.74674703 -36.125 83.25 C-39.70573887 88.4656743 -44.88124317 92.3649408 -50 96 C-50.66 96 -51.32 96 -52 96 C-52 96.66 -52 97.32 -52 98 C-53.6796875 99.5078125 -53.6796875 99.5078125 -55.875 101.125 C-56.59429687 101.66382813 -57.31359375 102.20265625 -58.0546875 102.7578125 C-60 104 -60 104 -62 104 C-62 104.66 -62 105.32 -62 106 C-64.03159135 107.59433816 -66.05195863 109.05787606 -68.1875 110.5 C-69.0547168 111.10521484 -69.0547168 111.10521484 -69.93945312 111.72265625 C-74.72905214 115.00231388 -78.1583414 117 -84 117 C-84.226875 117.556875 -84.45375 118.11375 -84.6875 118.6875 C-86.37550036 121.66159588 -88.46676517 123.72008865 -91 126 C-91.66 126 -92.32 126 -93 126 C-93 126.66 -93 127.32 -93 128 C-93.66 128 -94.32 128 -95 128 C-95 128.66 -95 129.32 -95 130 C-96.57365547 131.27448143 -98.21237132 132.46898948 -99.875 133.625 C-103.76341765 136.36683296 -107.48172545 139.1910242 -111.125 142.25 C-118.33826577 148.04109192 -125.62060961 151.31585063 -135 151 C-144.53525969 149.80019911 -152.63058298 146.21247881 -158.8828125 138.75390625 C-165.04507314 129.92728655 -165.90186041 121.62435559 -165 111 C-163.56807437 105.28705961 -161.20860684 100.20860684 -157 96 C-156.34 96 -155.68 96 -155 96 C-155 95.34 -155 94.68 -155 94 C-152.525 93.01 -152.525 93.01 -150 92 C-150 91.34 -150 90.68 -150 90 C-145.52941176 86 -145.52941176 86 -143 86 C-143 85.34 -143 84.68 -143 84 C-126.49705305 70 -126.49705305 70 -120 70 C-119.7215625 68.7625 -119.7215625 68.7625 -119.4375 67.5 C-113.10853056 52.09033528 -87.77506337 34.18491025 -73 28 C-72.18402344 27.88398438 -71.36804688 27.76796875 -70.52734375 27.6484375 C-67.47463802 26.86520852 -66.75303454 25.97782568 -64.875 23.5 C-60.57498296 18.26024414 -55.50522215 13.94403975 -50 10 C-49.34 10 -48.68 10 -48 10 C-48 9.34 -48 8.68 -48 8 C-46.3203125 6.4921875 -46.3203125 6.4921875 -44.125 4.875 C-43.40570313 4.33617187 -42.68640625 3.79734375 -41.9453125 3.2421875 C-40 2 -40 2 -38 2 C-38 1.34 -38 0.68 -38 0 C-36.58521865 -0.64995297 -35.16808513 -1.29478722 -33.75 -1.9375 C-32.96109375 -2.29714844 -32.1721875 -2.65679687 -31.359375 -3.02734375 C-20.52825681 -7.49249016 -10.11373188 -5.10242329 0 0 Z M-40.53125 23.890625 C-43 26 -43 26 -45 27 C-45 27.66 -45 28.32 -45 29 C-45.66 29 -46.32 29 -47 29 C-47 29.66 -47 30.32 -47 31 C-45.64731864 32.11691991 -44.24090443 33.16920843 -42.8125 34.1875 C-35.13606257 40.04424818 -32.30500971 45.68626157 -30 55 C-29.071875 54.38125 -28.14375 53.7625 -27.1875 53.125 C-25.125 51.75 -23.0625 50.375 -21 49 C-21 48.34 -21 47.68 -21 47 C-20.401875 46.71125 -19.80375 46.4225 -19.1875 46.125 C-16.80672208 44.95257974 -16.80672208 44.95257974 -14 43 C-14 42.34 -14 41.68 -14 41 C-12.68 40.67 -11.36 40.34 -10 40 C-10 39.34 -10 38.68 -10 38 C-9.34 38 -8.68 38 -8 38 C-5.05393512 32.93645099 -3.12539158 29.01293288 -4 23 C-5.98967634 17.7016484 -8.90532996 14.59728277 -14 12 C-24.54200552 8.55357512 -33.13365939 17.42189089 -40.53125 23.890625 Z M-73 50 C-73 50.66 -73 51.32 -73 52 C-73.72445312 52.24105469 -74.44890625 52.48210937 -75.1953125 52.73046875 C-78.38124116 54.17256738 -80.34531411 55.90808609 -82.875 58.3125 C-85.84980298 61.08245128 -88.76127638 63.65399657 -92.125 65.9375 C-93.548125 66.9584375 -93.548125 66.9584375 -95 68 C-95 68.66 -95 69.32 -95 70 C-95.66 70.33 -96.32 70.66 -97 71 C-96.030625 71.61875 -95.06125 72.2375 -94.0625 72.875 C-91 75 -91 75 -90 77 C-89.34 77 -88.68 77 -88 77 C-88 77.66 -88 78.32 -88 79 C-87.34 79 -86.68 79 -86 79 C-84.07794619 83.58335908 -82.54269924 88.27934033 -81 93 C-92.52164009 95.48063781 -92.52164009 95.48063781 -98 94 C-98 93.01 -98 92.02 -98 91 C-98.66 91 -99.32 91 -100 91 C-100 90.34 -100 89.68 -100 89 C-100.66 89 -101.32 89 -102 89 C-102 88.34 -102 87.68 -102 87 C-102.66 87 -103.32 87 -104 87 C-102.75892597 91.96429611 -101.23893588 94.13871828 -97 97 C-93.51933065 98.74033467 -89.80538011 98.46436493 -86 98 C-83.10546285 96.90799175 -80.68968647 95.56490849 -78 94 C-78 93.34 -78 92.68 -78 92 C-77.42765625 91.731875 -76.8553125 91.46375 -76.265625 91.1875 C-73.92115366 89.95867364 -71.87595062 88.57477824 -69.75 87 C-69.04359375 86.484375 -68.3371875 85.96875 -67.609375 85.4375 C-67.07828125 84.963125 -66.5471875 84.48875 -66 84 C-66 83.34 -66 82.68 -66 82 C-65.46375 81.773125 -64.9275 81.54625 -64.375 81.3125 C-61.21499137 79.56617944 -58.7323017 77.3597151 -56 75 C-56.70125 74.319375 -57.4025 73.63875 -58.125 72.9375 C-69.76491976 61.23144433 -69.76491976 61.23144433 -70.1875 53.625 C-70.0946875 52.325625 -70.0946875 52.325625 -70 51 C-68.25181409 50.77695559 -66.50129677 50.5721355 -64.75 50.375 C-63.77546875 50.25898438 -62.8009375 50.14296875 -61.796875 50.0234375 C-58.78681771 49.99821356 -57.47215069 50.33769178 -55 52 C-53.14709767 53.88215868 -51.63284412 55.91358806 -50 58 C-49.34 57.67 -48.68 57.34 -48 57 C-50.81861676 51.13727714 -52.97775083 48.59579706 -59 46 C-64.49720777 45.06430506 -68.34442068 47.35317318 -73 50 Z M-122 89 C-122.84304687 89.71027344 -123.68609375 90.42054688 -124.5546875 91.15234375 C-125.6613714 92.08083279 -126.76814701 93.00921254 -127.875 93.9375 C-128.43058594 94.40607422 -128.98617187 94.87464844 -129.55859375 95.35742188 C-133.7734375 98.88671875 -133.7734375 98.88671875 -136 100 C-136 100.66 -136 101.32 -136 102 C-136.53625 102.226875 -137.0725 102.45375 -137.625 102.6875 C-143.13930822 105.73488086 -146.72671292 108.76438541 -148.66015625 114.81640625 C-149.46845689 120.00997015 -147.92030385 124.43207493 -145.3125 128.875 C-141.86581506 132.042224 -138.60025808 133.79559214 -133.86328125 134.16796875 C-127.56672444 133.87127236 -122.67286598 131.16470561 -118 127 C-118 126.34 -118 125.68 -118 125 C-117.44828125 124.75507813 -116.8965625 124.51015625 -116.328125 124.2578125 C-113.52360509 122.74261886 -111.21896877 120.88915874 -108.75 118.875 C-107.85796875 118.15054688 -106.9659375 117.42609375 -106.046875 116.6796875 C-105.37140625 116.12539063 -104.6959375 115.57109375 -104 115 C-106.53237682 112.36564827 -109.06566807 110.14700159 -112.0625 108.0625 C-115.29426782 105.64167764 -117.50927276 103.85835286 -119 100 C-119.33746025 97.36616388 -119.56193116 94.76165255 -119.69140625 92.109375 C-119.79324219 91.41328125 -119.89507812 90.7171875 -120 90 C-120.66 89.67 -121.32 89.34 -122 89 Z " fill="#235AA2" transform="translate(327,182)"/>
<path d="M0 0 C0 0.66 0 1.32 0 2 C0.598125 2.226875 1.19625 2.45375 1.8125 2.6875 C4.56351888 4.33811133 5.52484637 6.1972081 7 9 C5.35 9.66 3.7 10.32 2 11 C2 10.34 2 9.68 2 9 C-0.16343011 11.03268602 -0.16343011 11.03268602 -2 14 C-2 13.34 -2 12.68 -2 12 C-3.485 12.495 -3.485 12.495 -5 13 C-4.7834375 13.86625 -4.7834375 13.86625 -4.5625 14.75 C-4.376875 15.4925 -4.19125 16.235 -4 17 C-3.773125 17.70125 -3.54625 18.4025 -3.3125 19.125 C-3.209375 19.74375 -3.10625 20.3625 -3 21 C-3.66 21.66 -4.32 22.32 -5 23 C-5.495 21.9275 -5.99 20.855 -6.5 19.75 C-9.01993164 15.36905878 -12.18892927 13.39793376 -17 12 C-26.47719359 11.65537478 -34.09453324 19.74566627 -40.93359375 25.4609375 C-43 27 -43 27 -45 27 C-45 27.66 -45 28.32 -45 29 C-45.66 29 -46.32 29 -47 29 C-47 29.66 -47 30.32 -47 31 C-46.4121875 31.27328125 -45.824375 31.5465625 -45.21875 31.828125 C-38.40100122 35.42904865 -33.75897651 40.97948227 -30.6875 48 C-29.87564423 51.54264338 -29.80182894 53.5552582 -31 57 C-35.09643339 60.89161172 -38.54327582 61.44293044 -43.94921875 61.43359375 C-46.53051772 60.8878334 -47.39601846 60.06841798 -49 58 C-49.4125 56.865625 -49.825 55.73125 -50.25 54.5625 C-52.40110144 50.18347208 -54.47823673 48.62319707 -59 47 C-63.89739561 46.30037206 -66.72962005 47.67070185 -71 50 C-71.66 50 -72.32 50 -73 50 C-73 50.66 -73 51.32 -73 52 C-74.328125 53.15625 -74.328125 53.15625 -76.25 54.5 C-80.68597947 57.69581317 -84.83024674 61.17320118 -88.96191406 64.74804688 C-92.78407949 68 -92.78407949 68 -95 68 C-95.33 69.32 -95.66 70.64 -96 72 C-96.97066406 71.67257813 -97.94132812 71.34515625 -98.94140625 71.0078125 C-103.3010926 69.76218783 -107.43375972 69.7746596 -111.9375 69.875 C-112.71673828 69.88402344 -113.49597656 69.89304687 -114.29882812 69.90234375 C-116.19935447 69.92566309 -118.09972008 69.96152414 -120 70 C-114.93858312 52.99267977 -90.39037399 37.4473815 -75.6875 29.125 C-73 28 -73 28 -70.52734375 27.6484375 C-67.47463802 26.86520852 -66.75303454 25.97782568 -64.875 23.5 C-60.57498296 18.26024414 -55.50522215 13.94403975 -50 10 C-49.34 10 -48.68 10 -48 10 C-48 9.34 -48 8.68 -48 8 C-46.3203125 6.4921875 -46.3203125 6.4921875 -44.125 4.875 C-43.40570313 4.33617187 -42.68640625 3.79734375 -41.9453125 3.2421875 C-40 2 -40 2 -38 2 C-38 1.34 -38 0.68 -38 0 C-36.58521865 -0.64995297 -35.16808513 -1.29478722 -33.75 -1.9375 C-32.96109375 -2.29714844 -32.1721875 -2.65679687 -31.359375 -3.02734375 C-20.52825681 -7.49249016 -10.11373188 -5.10242329 0 0 Z " fill="#245BA3" transform="translate(327,182)"/>
<path d="M0 0 C0.495 1.485 0.495 1.485 1 3 C1.66 3 2.32 3 3 3 C3 3.66 3 4.32 3 5 C3.66 5 4.32 5 5 5 C8.06242216 9.84060277 9.53411505 13.29290936 10 19 C6.41577358 21.38948428 3.23291117 21.96014208 -1 22 C-4.5 21.0625 -4.5 21.0625 -7 20 C-7 19.01 -7 18.02 -7 17 C-7.66 17 -8.32 17 -9 17 C-9 16.34 -9 15.68 -9 15 C-9.66 15 -10.32 15 -11 15 C-11.43054688 14.35546875 -11.86109375 13.7109375 -12.3046875 13.046875 C-13.83685886 10.80243566 -13.83685886 10.80243566 -16.3828125 10.328125 C-22.06542802 10.16622712 -25.33892819 10.67636095 -29.625 14.5625 C-31.08586912 16.0391623 -32.54415317 17.51838597 -34 19 C-35.6219755 20.36225571 -37.26725899 21.69737184 -38.9375 23 C-39.66839844 23.5775 -40.39929688 24.155 -41.15234375 24.75 C-43 26 -43 26 -45 26 C-45 26.66 -45 27.32 -45 28 C-46.40271324 29.08805849 -47.8484709 30.12096091 -49.3125 31.125 C-53.10419171 34.01960377 -55.42663271 36.2677614 -56.7734375 40.8828125 C-57.35645971 46.3310545 -55.51275663 51.25249386 -53 56 C-54.051875 55.9071875 -54.051875 55.9071875 -55.125 55.8125 C-58.65260212 56.04256101 -60.93984351 57.29200568 -64 59 C-64.15811388 62.05270463 -64.15811388 62.05270463 -63 65 C-60.69 65.33 -58.38 65.66 -56 66 C-56.33 67.98 -56.66 69.96 -57 72 C-55.68 72 -54.36 72 -53 72 C-52.67 72.99 -52.34 73.98 -52 75 C-59.498318 73.26961892 -65.7804961 68.34518945 -69.9375 61.9375 C-74.91441196 53.49993959 -75.60638214 43.40896791 -73.2421875 33.9765625 C-71.51589329 29.45013752 -69.46231754 25.46231754 -66 22 C-65.34 22 -64.68 22 -64 22 C-64 21.34 -64 20.68 -64 20 C-62.35 19.34 -60.7 18.68 -59 18 C-59 17.34 -59 16.68 -59 16 C-54.52941176 12 -54.52941176 12 -52 12 C-52 11.34 -52 10.68 -52 10 C-36.87480196 -2.83120967 -18.89705695 -12.13102209 0 0 Z " fill="#2A5EA1" transform="translate(236,256)"/>
<path d="M0 0 C2.70412153 1.16934985 4.5690377 2.17820549 5.96484375 4.83984375 C9.56581228 14.46034177 10.06661751 22.44259092 6 32 C4.23616826 35.4938736 2.17113535 38.74329698 0 42 C-0.66 42 -1.32 42 -2 42 C-2 42.66 -2 43.32 -2 44 C-3.8984375 45.7265625 -3.8984375 45.7265625 -6.375 47.625 C-7.18710937 48.25664062 -7.99921875 48.88828125 -8.8359375 49.5390625 C-11 51 -11 51 -13 51 C-13 51.66 -13 52.32 -13 53 C-25.06203883 63.2326296 -34.10808335 68.49354187 -50.16796875 68.3359375 C-57.9076448 67.65743379 -63.7453953 64.76593552 -69 59.0625 C-72.30780365 54.82437658 -75 51.29584082 -75 45.75 C-74 43 -74 43 -71.8125 41.625 C-67.63698169 40.69710704 -64.50062879 40.36223277 -60.5 42.0625 C-57.66607586 44.25879121 -55.56393695 46.68520814 -53.33203125 49.4765625 C-51.65273857 51.39716117 -50.54692437 51.9441256 -48.01171875 52.203125 C-43.12673572 52.30164567 -39.96097056 52.16877645 -36 49 C-34.64567325 47.68799596 -33.31266518 46.35368596 -32 45 C-27.33333333 41 -27.33333333 41 -25 41 C-25 40.34 -25 39.68 -25 39 C-20.52941176 35 -20.52941176 35 -18 35 C-18 34.34 -18 33.68 -18 33 C-16.02 32.505 -16.02 32.505 -14 32 C-14 31.34 -14 30.68 -14 30 C-13.34 30 -12.68 30 -12 30 C-10.38887007 26.31547501 -9.47312459 22.83874757 -8.8125 18.875 C-8.63332031 17.84117187 -8.45414062 16.80734375 -8.26953125 15.7421875 C-7.80322232 12.91114862 -7.80322232 12.91114862 -9 10 C-9.33 10 -9.66 10 -10 10 C-10 8.35 -10 6.7 -10 5 C-8.35 4.34 -6.7 3.68 -5 3 C-5 2.34 -5 1.68 -5 1 C-3.68 1.33 -2.36 1.66 -1 2 C-0.67 1.34 -0.34 0.68 0 0 Z " fill="#225AA1" transform="translate(331,190)"/>
<path d="M0 0 C1.546875 0.928125 1.546875 0.928125 3.125 1.875 C7.62071442 5.19791936 10.46629622 9.63203678 12 15 C12.15093086 17.69160038 12.09153264 20.29978713 12 23 C9.04044139 24.69213943 6.84300083 25.29521319 3.4375 25.3125 C2.67308594 25.32925781 1.90867187 25.34601563 1.12109375 25.36328125 C-1.54956593 24.90587545 -2.36632829 24.12916973 -4 22 C-4.4125 20.865625 -4.825 19.73125 -5.25 18.5625 C-7.40110144 14.18347208 -9.47823673 12.62319707 -14 11 C-18.89739561 10.30037206 -21.72962005 11.67070185 -26 14 C-26.66 14 -27.32 14 -28 14 C-28 14.66 -28 15.32 -28 16 C-29.328125 17.15625 -29.328125 17.15625 -31.25 18.5 C-35.68597947 21.69581317 -39.83024674 25.17320118 -43.96191406 28.74804688 C-47.78407949 32 -47.78407949 32 -50 32 C-50.33 33.32 -50.66 34.64 -51 36 C-51.9075 35.690625 -52.815 35.38125 -53.75 35.0625 C-59.04506536 33.52310987 -64.52225363 33.34179698 -70 33 C-69.17269128 25.63178174 -63.014953 21.48490481 -57.578125 17.00390625 C-55.40478955 15.30826702 -53.20515704 13.65386778 -51 12 C-48.50376022 10.0228196 -46.0289093 8.02379672 -43.5703125 6 C-31.093598 -4.20459716 -14.55212137 -10.83668612 0 0 Z " fill="#F48219" transform="translate(282,218)"/>
<path d="M0 0 C0.763125 0.309375 1.52625 0.61875 2.3125 0.9375 C6.5697955 2.62061683 10.12420285 3.24623188 14.6875 3.5625 C15.86699219 3.64628906 17.04648437 3.73007812 18.26171875 3.81640625 C19.16535156 3.87699219 20.06898438 3.93757813 21 4 C20.41103058 7.59836113 19.00101444 9.45835011 16.5625 12.125 C15.94503906 12.80820312 15.32757813 13.49140625 14.69140625 14.1953125 C11.19786443 17.92283287 11.19786443 17.92283287 8.65625 18.9140625 C5.82815667 20.0702536 3.87208737 21.46229575 1.5 23.375 C0.71882813 24.00019531 -0.06234375 24.62539063 -0.8671875 25.26953125 C-1.57101562 25.84058594 -2.27484375 26.41164063 -3 27 C-4.299375 28.0209375 -4.299375 28.0209375 -5.625 29.0625 C-7.63286699 30.70049675 -9.60063976 32.37024 -11.5625 34.0625 C-12.70808837 35.04195326 -13.85389588 36.02115031 -15 37 C-15.721875 37.61875 -16.44375 38.2375 -17.1875 38.875 C-19 40 -19 40 -23 40 C-23 40.66 -23 41.32 -23 42 C-28.61 42 -34.22 42 -40 42 C-40 41.34 -40 40.68 -40 40 C-40.680625 39.896875 -41.36125 39.79375 -42.0625 39.6875 C-48.95027613 38.07546729 -52.87567377 35.79635037 -57 30 C-57.39445313 29.46246094 -57.78890625 28.92492187 -58.1953125 28.37109375 C-60.92571175 24.25640117 -61.44202474 20.81637573 -61.43359375 15.91796875 C-61 14 -61 14 -58 12 C-55.37109375 11.69921875 -55.37109375 11.69921875 -52.4375 11.6875 C-51.46683594 11.67074219 -50.49617187 11.65398437 -49.49609375 11.63671875 C-48.67238281 11.75660156 -47.84867188 11.87648438 -47 12 C-45 15 -45 15 -44.25 17.9375 C-42.57541772 22.04022659 -40.98975672 23.11393319 -37 25 C-31.18629358 25.92561694 -27.10542313 24.98854037 -22 22 C-21.34 22 -20.68 22 -20 22 C-20 21.34 -20 20.68 -20 20 C-17.8828125 18.0546875 -17.8828125 18.0546875 -15.125 15.875 C-14.22007812 15.15054687 -13.31515625 14.42609375 -12.3828125 13.6796875 C-10 12 -10 12 -8 12 C-8 11.34 -8 10.68 -8 10 C-6.03125 8.2734375 -6.03125 8.2734375 -3.5 6.375 C-2.6646875 5.74335938 -1.829375 5.11171875 -0.96875 4.4609375 C0.00578125 3.73777344 0.00578125 3.73777344 1 3 C0.505 1.515 0.505 1.515 0 0 Z " fill="#F38319" transform="translate(269,254)"/>
<path d="M0 0 C1.41345703 -0.01836914 1.41345703 -0.01836914 2.85546875 -0.03710938 C11.05567293 -0.05436086 17.69354169 1.36045299 23.75 7.1875 C26.19034683 10.94254072 27.1571688 14.70864325 26.75 19.1875 C27.41 19.1875 28.07 19.1875 28.75 19.1875 C28.75 21.1675 28.75 23.1475 28.75 25.1875 C26.10541621 26.50979189 24.07238699 26.28427194 21.125 26.25 C20.12210937 26.24097656 19.11921875 26.23195312 18.0859375 26.22265625 C17.31507813 26.21105469 16.54421875 26.19945312 15.75 26.1875 C15.42 23.8775 15.09 21.5675 14.75 19.1875 C14.09 19.1875 13.43 19.1875 12.75 19.1875 C13.08 17.2075 13.41 15.2275 13.75 13.1875 C10.12584067 12.96226976 6.50075781 12.76018692 2.875 12.5625 C1.32619141 12.46582031 1.32619141 12.46582031 -0.25390625 12.3671875 C-1.24003906 12.315625 -2.22617187 12.2640625 -3.2421875 12.2109375 C-4.15339355 12.15856934 -5.06459961 12.10620117 -6.00341797 12.05224609 C-8.4553109 11.95058767 -8.4553109 11.95058767 -10.25 14.1875 C-10.25 13.1975 -10.25 12.2075 -10.25 11.1875 C-11.9 11.5175 -13.55 11.8475 -15.25 12.1875 C-16.25 10.1875 -16.25 10.1875 -15.54296875 8.05859375 C-15.17816406 7.25550781 -14.81335938 6.45242187 -14.4375 5.625 C-14.08042969 4.81933594 -13.72335938 4.01367188 -13.35546875 3.18359375 C-10.77568233 -1.47460717 -4.67805979 0.00314809 0 0 Z " fill="#F48218" transform="translate(264.25,214.8125)"/>
<path d="M0 0 C2.70412153 1.16934985 4.5690377 2.17820549 5.96484375 4.83984375 C9.56581228 14.46034177 10.06661751 22.44259092 6 32 C4.23616826 35.4938736 2.17113535 38.74329698 0 42 C-0.66 42 -1.32 42 -2 42 C-2 42.66 -2 43.32 -2 44 C-4.5 45.625 -4.5 45.625 -7 47 C-7.33 45.35 -7.66 43.7 -8 42 C-6.35 40.68 -4.7 39.36 -3 38 C-2.505 38.495 -2.505 38.495 -2 39 C-2 37.35 -2 35.7 -2 34 C-2.66 34 -3.32 34 -4 34 C-4.33 31.69 -4.66 29.38 -5 27 C-5.99 27.33 -6.98 27.66 -8 28 C-8.2475 28.5775 -8.495 29.155 -8.75 29.75 C-10.66550016 33.19790029 -13.61293862 35.06661303 -17 37 C-19.9375 37.8125 -19.9375 37.8125 -22 38 C-21.34 37.01 -20.68 36.02 -20 35 C-19.34 35 -18.68 35 -18 35 C-18 34.34 -18 33.68 -18 33 C-16.02 32.505 -16.02 32.505 -14 32 C-14 31.34 -14 30.68 -14 30 C-13.34 30 -12.68 30 -12 30 C-10.38887007 26.31547501 -9.47312459 22.83874757 -8.8125 18.875 C-8.63332031 17.84117187 -8.45414062 16.80734375 -8.26953125 15.7421875 C-7.80322232 12.91114862 -7.80322232 12.91114862 -9 10 C-9.33 10 -9.66 10 -10 10 C-10 8.35 -10 6.7 -10 5 C-8.35 4.34 -6.7 3.68 -5 3 C-5 2.34 -5 1.68 -5 1 C-3.68 1.33 -2.36 1.66 -1 2 C-0.67 1.34 -0.34 0.68 0 0 Z " fill="#285CA3" transform="translate(331,190)"/>
<path d="M0 0 C3.07367811 1.9466628 4.64625111 4.85232443 5.875 8.1875 C5.625 11.125 5.625 11.125 4.875 13.1875 C3.555 12.8575 2.235 12.5275 0.875 12.1875 C0.606875 12.80496094 0.33875 13.42242187 0.0625 14.05859375 C-4.54748751 24.02162596 -10.70935805 32.01422932 -21.125 36.1875 C-24.13035599 37.05530796 -27.03535594 37.64803834 -30.125 38.1875 C-30.125 40.1675 -30.125 42.1475 -30.125 44.1875 C-33.27830554 43.58055845 -35.31388867 42.5458335 -37.875 40.625 C-38.48859375 40.16996094 -39.1021875 39.71492188 -39.734375 39.24609375 C-40.42273438 38.72208984 -40.42273438 38.72208984 -41.125 38.1875 C-40.84717314 34.20531501 -40.33226652 32.43840158 -37.75 29.3125 C-35.125 27.1875 -35.125 27.1875 -32.125 27.1875 C-31.795 28.8375 -31.465 30.4875 -31.125 32.1875 C-25.23977359 30.67905362 -20.71869001 29.35053157 -16.125 25.1875 C-15.465 25.1875 -14.805 25.1875 -14.125 25.1875 C-14.125 24.5275 -14.125 23.8675 -14.125 23.1875 C-13.465 23.1875 -12.805 23.1875 -12.125 23.1875 C-12.125 22.5275 -12.125 21.8675 -12.125 21.1875 C-11.465 21.1875 -10.805 21.1875 -10.125 21.1875 C-9.83625 20.28 -9.5475 19.3725 -9.25 18.4375 C-8.35968224 15.86547092 -7.41005587 13.57403234 -6.125 11.1875 C-7.445 10.5275 -8.765 9.8675 -10.125 9.1875 C-10.125 8.1975 -10.125 7.2075 -10.125 6.1875 C-9.465 6.1875 -8.805 6.1875 -8.125 6.1875 C-8.125 5.5275 -8.125 4.8675 -8.125 4.1875 C-3.2176276 0.28390832 -3.2176276 0.28390832 0 0 Z " fill="#5ADC7C" transform="translate(297.125,269.8125)"/>
<path d="M0 0 C3.99500618 1.3697164 6.80009492 3.25722422 10 6 C9.68232368 11.40049736 6.80003673 13.52337065 3 17 C1.68 16.34 0.36 15.68 -1 15 C-1 14.34 -1 13.68 -1 13 C-7.6812053 13.41757533 -12.92259017 15.68945306 -17.546875 20.6640625 C-18.70607777 22.1028377 -19.85401927 23.55067143 -21 25 C-21.66 25 -22.32 25 -23 25 C-23 25.99 -23 26.98 -23 28 C-23.66 28 -24.32 28 -25 28 C-25 29.32 -25 30.64 -25 32 C-23.68 32.66 -22.36 33.32 -21 34 C-21.125 35.75 -21.125 35.75 -22 38 C-24.81848467 40.30603291 -27.07033117 41.77865028 -30.625 42.625 C-33 42 -33 42 -35.3125 39.375 C-37.07486527 35.85026947 -37.36875341 33.87191078 -37 30 C-35.35 30.33 -33.7 30.66 -32 31 C-31.69707031 30.34773438 -31.39414063 29.69546875 -31.08203125 29.0234375 C-26.10023111 18.63063598 -19.67955444 11.65788032 -9 7 C-6.33646245 6.48479018 -3.70500869 6.27050087 -1 6 C-1.020625 5.195625 -1.04125 4.39125 -1.0625 3.5625 C-1 1 -1 1 0 0 Z " fill="#8CE5A6" transform="translate(236,194)"/>
<path d="M0 0 C-5.25884786 8.06155761 -11.00202958 14.54683835 -19 20 C-19.66 20 -20.32 20 -21 20 C-21 20.66 -21 21.32 -21 22 C-22.6796875 23.5078125 -22.6796875 23.5078125 -24.875 25.125 C-25.59429687 25.66382813 -26.31359375 26.20265625 -27.0546875 26.7578125 C-29 28 -29 28 -31 28 C-31 28.66 -31 29.32 -31 30 C-33.03159135 31.59433816 -35.05195863 33.05787606 -37.1875 34.5 C-37.76564453 34.90347656 -38.34378906 35.30695313 -38.93945312 35.72265625 C-43.72905214 39.00231388 -47.1583414 41 -53 41 C-53.33 41.99 -53.66 42.98 -54 44 C-54.33 43.34 -54.66 42.68 -55 42 C-57.82891565 41.54867143 -60.59055954 41.20346113 -63.4375 40.9375 C-70.25652104 40.26394772 -73.66565147 39.3860199 -79 35 C-79.58652344 34.53078125 -80.17304688 34.0615625 -80.77734375 33.578125 C-87.09399159 28.39660415 -89.22722747 24.45629459 -90.08203125 16.3046875 C-90 14 -90 14 -88 11 C-87.938125 12.7015625 -87.938125 12.7015625 -87.875 14.4375 C-87.31658829 19.12982525 -85.22230394 22.16559953 -82.47265625 25.921875 C-81 28 -81 28 -80.05859375 30.203125 C-79.16128496 32.16789052 -79.16128496 32.16789052 -77.140625 32.65234375 C-76.43421875 32.76707031 -75.7278125 32.88179688 -75 33 C-73.57633889 33.50139889 -72.15937271 34.02224046 -70.75 34.5625 C-70.04359375 34.83191406 -69.3371875 35.10132813 -68.609375 35.37890625 C-68.07828125 35.58386719 -67.5471875 35.78882813 -67 36 C-67 36.66 -67 37.32 -67 38 C-61.39 38 -55.78 38 -50 38 C-50 37.34 -50 36.68 -50 36 C-47.4482215 34.9792886 -44.92706623 33.97625412 -42.3125 33.125 C-39.87131196 32.23124136 -39.87131196 32.23124136 -39.07421875 30.1015625 C-37.84085163 27.68864791 -36.70798087 26.78834733 -34.5 25.25 C-30.30698156 22.25607791 -26.35132665 19.03276987 -22.39453125 15.734375 C-20 14 -20 14 -17.46484375 13.04296875 C-14.3983837 11.74543336 -12.91202946 10.07524035 -10.75 7.5625 C-10.06421875 6.78003906 -9.3784375 5.99757813 -8.671875 5.19140625 C-6.82558923 3.01679263 -6.82558923 3.01679263 -6 0 C-3.50907189 -1.24546405 -2.58919267 -0.7767578 0 0 Z " fill="#7CD267" transform="translate(296,258)"/>
<path d="M0 0 C5.95362502 5.08094383 10.73427207 10.42710767 12.5234375 18.234375 C12.2734375 21.546875 12.2734375 21.546875 11.5234375 24.234375 C10.8634375 24.564375 10.2034375 24.894375 9.5234375 25.234375 C9.4409375 24.244375 9.3584375 23.254375 9.2734375 22.234375 C8.4481459 16.42196416 5.51213414 10.54216737 1.5234375 6.234375 C-0.85269115 4.62530392 -0.85269115 4.62530392 -3.4765625 3.234375 C-4.2603125 2.698125 -5.0440625 2.161875 -5.8515625 1.609375 C-12.83015191 -2.0460766 -23.83012694 -1.85299378 -31.3515625 0.28515625 C-36.21907843 2.45943267 -40.30979231 5.96091238 -44.4765625 9.234375 C-45.58837891 10.07355469 -45.58837891 10.07355469 -46.72265625 10.9296875 C-51.33795319 14.43561949 -55.79223628 18.12917737 -60.2265625 21.859375 C-60.76974121 22.31481689 -61.31291992 22.77025879 -61.87255859 23.23950195 C-68.96951656 28.60109508 -68.96951656 28.60109508 -72.4765625 36.234375 C-74.9515625 36.729375 -74.9515625 36.729375 -77.4765625 37.234375 C-73.83808193 21.06335025 -49.37777442 6.73244292 -36.4765625 -1.765625 C-25.85483584 -7.77792311 -10.09262411 -7.1953724 0 0 Z " fill="#7BE684" transform="translate(284.4765625,214.765625)"/>
<path d="M0 0 C0.495 0.99 0.495 0.99 1 2 C-7.25 2 -15.5 2 -24 2 C-24.33 3.65 -24.66 5.3 -25 7 C-25.63437344 8.6792238 -26.29289322 10.35008418 -27 12 C-26.01 11.67 -25.02 11.34 -24 11 C-22.65821287 11.2974831 -21.32502225 11.63502749 -20 12 C-18.43757893 12.13107446 -16.87148583 12.22223215 -15.3046875 12.28125 C-14.42425781 12.31863281 -13.54382813 12.35601562 -12.63671875 12.39453125 C-10.78777177 12.46514167 -8.93881329 12.53545167 -7.08984375 12.60546875 C-5.77306641 12.66154297 -5.77306641 12.66154297 -4.4296875 12.71875 C-3.22675049 12.76418945 -3.22675049 12.76418945 -1.99951172 12.81054688 C0 13 0 13 2 14 C1.67 15.98 1.34 17.96 1 20 C1.66 19.01 2.32 18.02 3 17 C4 18 4 18 4.09765625 20.06640625 C4.06510417 22.37760417 4.03255208 24.68880208 4 27 C10.435 26.505 10.435 26.505 17 26 C17 24.02 17 22.04 17 20 C16.34 20 15.68 20 15 20 C14.505 16.535 14.505 16.535 14 13 C16 14 16 14 17.125 16.0625 C18.2583306 19.86725273 18.13434296 23.0368828 18 27 C15.04044139 28.69213943 12.84300083 29.29521319 9.4375 29.3125 C8.67308594 29.32925781 7.90867187 29.34601563 7.12109375 29.36328125 C4.45043407 28.90587545 3.63367171 28.12916973 2 26 C1.5875 24.865625 1.175 23.73125 0.75 22.5625 C-1.40110144 18.18347208 -3.47823673 16.62319707 -8 15 C-12.89739561 14.30037206 -15.72962005 15.67070185 -20 18 C-20.66 18 -21.32 18 -22 18 C-22 18.66 -22 19.32 -22 20 C-23.64453125 21.47265625 -23.64453125 21.47265625 -25.8125 23.0625 C-26.52019531 23.58972656 -27.22789062 24.11695313 -27.95703125 24.66015625 C-30 26 -30 26 -33 27 C-32.67 25.35 -32.34 23.7 -32 22 C-30.68 22 -29.36 22 -28 22 C-28.79299706 19.82961523 -28.79299706 19.82961523 -30.84765625 19.3671875 C-31.57855469 19.20476562 -32.30945313 19.04234375 -33.0625 18.875 C-33.79597656 18.70742187 -34.52945313 18.53984375 -35.28515625 18.3671875 C-35.85105469 18.24601562 -36.41695312 18.12484375 -37 18 C-37 17.01 -37 16.02 -37 15 C-40.77545388 16.09068668 -43.47043472 16.9083091 -46 20 C-46.66 19.67 -47.32 19.34 -48 19 C-33.03392239 5.62250046 -21.04198904 -4.47701895 0 0 Z M-1 14 C0 16 0 16 0 16 Z " fill="#F38621" transform="translate(276,214)"/>
<path d="M0 0 C3.25953329 2.59091108 5.14441402 5.46511266 7.4375 8.9375 C6.1175 9.9275 4.7975 10.9175 3.4375 11.9375 C4.58923355 14.40550047 5.48533565 15.98533565 7.4375 17.9375 C6.4475 17.9375 5.4575 17.9375 4.4375 17.9375 C4.4375 18.5975 4.4375 19.2575 4.4375 19.9375 C1.37902152 20.48122951 -1.45022805 20.9375 -4.5625 20.9375 C-8.8151234 17.12946904 -12.68209513 12.34366401 -14.5625 6.9375 C-14.5625 3.6875 -14.5625 3.6875 -13.5625 0.9375 C-9.26781475 -1.76201644 -4.64506086 -1.92600084 0 0 Z " fill="#285FA8" transform="translate(270.5625,232.0625)"/>
<path d="M0 0 C0.66 0.33 1.32 0.66 2 1 C-1.33333333 4.33333333 -4.66666667 7.66666667 -8 11 C-5.36 10.01 -2.72 9.02 0 8 C-0.14107747 9.45880109 -0.28802415 10.91703551 -0.4375 12.375 C-0.51871094 13.18710937 -0.59992188 13.99921875 -0.68359375 14.8359375 C-1 17 -1 17 -2 19 C-1.34 19 -0.68 19 0 19 C0.33 18.01 0.66 17.02 1 16 C2.32 16 3.64 16 5 16 C5 16.66 5 17.32 5 18 C3.13671875 19.7265625 3.13671875 19.7265625 0.6875 21.625 C-0.11300781 22.25664062 -0.91351563 22.88828125 -1.73828125 23.5390625 C-4 25 -4 25 -7 25 C-7.66 22.69 -8.32 20.38 -9 18 C-12.37462715 18.54723683 -14.08235 19.0549 -17 21 C-19.6875 21.125 -19.6875 21.125 -22 21 C-22.33 20.01 -22.66 19.02 -23 18 C-21.625 16.5 -21.625 16.5 -20 15 C-19.34 15 -18.68 15 -18 15 C-18 14.34 -18 13.68 -18 13 C-16.17954729 11.47411893 -14.29139563 10.02849169 -12.375 8.625 C-10.80878906 7.46871094 -10.80878906 7.46871094 -9.2109375 6.2890625 C-6.17711964 4.12626777 -3.11233617 2.04685171 0 0 Z " fill="#21579E" transform="translate(202,253)"/>
<path d="M0 0 C2.3828125 -0.29296875 2.3828125 -0.29296875 5.125 -0.1875 C6.03507812 -0.16042969 6.94515625 -0.13335937 7.8828125 -0.10546875 C8.58148438 -0.07066406 9.28015625 -0.03585938 10 0 C10 0.99 10 1.98 10 3 C10.66 3 11.32 3 12 3 C12 3.66 12 4.32 12 5 C10.02 5 8.04 5 6 5 C7.39195915 7.7839183 9.15575779 7.97898997 12 9 C12 9.99 12 10.98 12 12 C10.906875 12.268125 9.81375 12.53625 8.6875 12.8125 C5.09641705 13.96895044 4.42147743 14.47324094 2 17 C-1.1875 18.1875 -1.1875 18.1875 -4 19 C-4 16.69 -4 14.38 -4 12 C-3.34 12 -2.68 12 -2 12 C-2.33 11.01 -2.66 10.02 -3 9 C-3.598125 9.33 -4.19625 9.66 -4.8125 10 C-7 11 -7 11 -10 11 C-8.4882584 6.76712351 -5.6677386 5.36874785 -2 3 C-1.34 2.01 -0.68 1.02 0 0 Z " fill="#1C58A1" transform="translate(204,253)"/>
<path d="M0 0 C5.95362502 5.08094383 10.73427207 10.42710767 12.5234375 18.234375 C12.2734375 21.546875 12.2734375 21.546875 11.5234375 24.234375 C10.5334375 24.729375 10.5334375 24.729375 9.5234375 25.234375 C9.4409375 24.244375 9.3584375 23.254375 9.2734375 22.234375 C8.4481459 16.42196416 5.51213414 10.54216737 1.5234375 6.234375 C-0.85269115 4.62530392 -0.85269115 4.62530392 -3.4765625 3.234375 C-4.2603125 2.698125 -5.0440625 2.161875 -5.8515625 1.609375 C-13.87843628 -2.59517793 -24.78774861 -1.05285669 -33.4765625 0.234375 C-33.1465625 -1.085625 -32.8165625 -2.405625 -32.4765625 -3.765625 C-22.64396135 -7.65293243 -8.66593307 -6.17823619 0 0 Z " fill="#73DD76" transform="translate(284.4765625,214.765625)"/>
<path d="M0 0 C-0.33 1.98 -0.66 3.96 -1 6 C0.75029762 5.68917128 2.50022694 5.37626821 4.25 5.0625 C5.22453125 4.88847656 6.1990625 4.71445312 7.203125 4.53515625 C9.49721795 4.09620271 11.74291971 3.59651408 14 3 C14.33 3.66 14.66 4.32 15 5 C12.65408148 7.7710688 10.85223799 8.52059284 7.3125 9.1875 C6.50425781 9.34605469 5.69601562 9.50460937 4.86328125 9.66796875 C4.24839844 9.77753906 3.63351562 9.88710938 3 10 C3 11.98 3 13.96 3 16 C-0.15330554 15.39305845 -2.18888867 14.3583335 -4.75 12.4375 C-5.36359375 11.98246094 -5.9771875 11.52742188 -6.609375 11.05859375 C-7.06828125 10.70925781 -7.5271875 10.35992187 -8 10 C-7.67895459 6.46850054 -7.34914783 4.44225392 -5.125 1.625 C-3 0 -3 0 0 0 Z " fill="#53DB78" transform="translate(264,298)"/>
<path d="M0 0 C0.66 1.32 1.32 2.64 2 4 C2.66 4 3.32 4 4 4 C4.33 3.34 4.66 2.68 5 2 C3.52321655 9.63853511 -2.35857312 14.67195411 -8.4609375 18.96875 C-8.96882813 19.3090625 -9.47671875 19.649375 -10 20 C-10.66 19.67 -11.32 19.34 -12 19 C-14.96875 17.67708333 -14.96875 17.67708333 -17.8125 18.9375 C-21.08715803 20.02905268 -23.57721983 20.16298953 -27 20 C-26.67 18.02 -26.34 16.04 -26 14 C-26.66 13.67 -27.32 13.34 -28 13 C-27.01 13 -26.02 13 -25 13 C-24.67 14.65 -24.34 16.3 -24 18 C-18.11477359 16.49155362 -13.59369001 15.16303157 -9 11 C-8.34 11 -7.68 11 -7 11 C-7 10.34 -7 9.68 -7 9 C-6.34 9 -5.68 9 -5 9 C-5 8.34 -5 7.68 -5 7 C-4.34 7 -3.68 7 -3 7 C-2.690625 6.030625 -2.38125 5.06125 -2.0625 4.0625 C-1 1 -1 1 0 0 Z " fill="#79E499" transform="translate(290,284)"/>
<path d="M0 0 C1.51400391 0.01740234 1.51400391 0.01740234 3.05859375 0.03515625 C4.07050781 0.04417969 5.08242187 0.05320312 6.125 0.0625 C7.29869141 0.07990234 7.29869141 0.07990234 8.49609375 0.09765625 C8.49609375 1.41765625 8.49609375 2.73765625 8.49609375 4.09765625 C9.15609375 4.09765625 9.81609375 4.09765625 10.49609375 4.09765625 C10.49609375 6.07765625 10.49609375 8.05765625 10.49609375 10.09765625 C7.68359375 11.22265625 7.68359375 11.22265625 4.49609375 12.09765625 C3.50609375 11.43765625 2.51609375 10.77765625 1.49609375 10.09765625 C0.50609375 10.42765625 -0.48390625 10.75765625 -1.50390625 11.09765625 C-3.94159843 7.44111798 -3.74335064 5.40765524 -3.50390625 1.09765625 C-2.50390625 0.09765625 -2.50390625 0.09765625 0 0 Z " fill="#F5811B" transform="translate(212.50390625,267.90234375)"/>
<path d="M0 0 C0.80244141 0.09345703 1.60488281 0.18691406 2.43164062 0.28320312 C3.26501953 0.38697266 4.09839844 0.49074219 4.95703125 0.59765625 C5.80201172 0.69755859 6.64699219 0.79746094 7.51757812 0.90039062 C9.60227322 1.14772733 11.68600409 1.40316666 13.76953125 1.66015625 C12.51976369 5.31332296 12.09854372 6.44081461 8.76953125 8.66015625 C8.76953125 8.00015625 8.76953125 7.34015625 8.76953125 6.66015625 C8.0940625 6.68335938 7.41859375 6.7065625 6.72265625 6.73046875 C5.38460937 6.75753906 5.38460937 6.75753906 4.01953125 6.78515625 C3.1378125 6.80835938 2.25609375 6.8315625 1.34765625 6.85546875 C-1.37293513 6.64936334 -2.86349131 5.94394062 -5.23046875 4.66015625 C-7.89755944 4.49265211 -7.89755944 4.49265211 -10.23046875 4.66015625 C-10.33359375 5.29953125 -10.43671875 5.93890625 -10.54296875 6.59765625 C-10.76984375 7.27828125 -10.99671875 7.95890625 -11.23046875 8.66015625 C-12.22046875 8.99015625 -13.21046875 9.32015625 -14.23046875 9.66015625 C-14.89046875 9.00015625 -15.55046875 8.34015625 -16.23046875 7.66015625 C-14.79705355 6.509217 -13.35857966 5.3645759 -11.91796875 4.22265625 C-10.71720703 3.26552734 -10.71720703 3.26552734 -9.4921875 2.2890625 C-6.17796735 -0.09786289 -3.93641449 -0.47460317 0 0 Z " fill="#2C778F" transform="translate(228.23046875,297.33984375)"/>
<path d="M0 0 C0.66 0 1.32 0 2 0 C1.67 2.97 1.34 5.94 1 9 C2.65 9.33 4.3 9.66 6 10 C5.875 11.75 5.875 11.75 5 14 C2.00254723 16.45246136 0.02124604 17.911196 -3.875 18.25 C-4.57625 18.1675 -5.2775 18.085 -6 18 C-6.33 15.36 -6.66 12.72 -7 10 C-5.68 10 -4.36 10 -3 10 C-3.061875 9.278125 -3.12375 8.55625 -3.1875 7.8125 C-2.96253379 4.43800685 -2.00130237 2.69406089 0 0 Z " fill="#5CDD81" transform="translate(209,218)"/>
<path d="M0 0 C2.79173055 -0.02690104 5.58320348 -0.04679053 8.375 -0.0625 C9.56609375 -0.07506836 9.56609375 -0.07506836 10.78125 -0.08789062 C16.7734375 -0.11328125 16.7734375 -0.11328125 19 1 C18.67 2.98 18.34 4.96 18 7 C18.66 6.01 19.32 5.02 20 4 C21 5 21 5 21.09765625 7.06640625 C21.06510417 9.37760417 21.03255208 11.68880208 21 14 C27.435 13.505 27.435 13.505 34 13 C34 11.02 34 9.04 34 7 C33.34 7 32.68 7 32 7 C31.505 3.535 31.505 3.535 31 0 C33 1 33 1 34.125 3.0625 C35.2583306 6.86725273 35.13434296 10.0368828 35 14 C32.04044139 15.69213943 29.84300083 16.29521319 26.4375 16.3125 C25.67308594 16.32925781 24.90867187 16.34601563 24.12109375 16.36328125 C21.45043407 15.90587545 20.63367171 15.12916973 19 13 C18.5875 11.865625 18.175 10.73125 17.75 9.5625 C15.60736932 5.20071612 13.52116466 3.59683688 9 2 C5.41811347 1.64883465 2.43297291 1.94370064 -1 3 C-0.67 2.01 -0.34 1.02 0 0 Z M16 1 C17 3 17 3 17 3 Z " fill="#D9964E" transform="translate(259,227)"/>
<path d="M0 0 C-5.25884786 8.06155761 -11.00202958 14.54683835 -19 20 C-19.66 20 -20.32 20 -21 20 C-21 20.66 -21 21.32 -21 22 C-22.98 22.99 -22.98 22.99 -25 24 C-24.72626158 20.53264665 -24.25270786 19.24366721 -21.70703125 16.7890625 C-20.75183594 16.07492187 -19.79664063 15.36078125 -18.8125 14.625 C-10.86755381 8.52565512 -10.86755381 8.52565512 -6 0 C-3.50907189 -1.24546405 -2.58919267 -0.7767578 0 0 Z " fill="#70DE87" transform="translate(296,258)"/>
<path d="M0 0 C0.66 0.33 1.32 0.66 2 1 C1.08476562 1.83144531 0.16953125 2.66289062 -0.7734375 3.51953125 C-1.97411032 4.61702125 -3.1746228 5.71468668 -4.375 6.8125 C-4.97828125 7.35970703 -5.5815625 7.90691406 -6.203125 8.47070312 C-7.07324219 9.26831055 -7.07324219 9.26831055 -7.9609375 10.08203125 C-8.49509277 10.56905518 -9.02924805 11.0560791 -9.57958984 11.55786133 C-11.23454469 13.14742726 -11.23454469 13.14742726 -13 16 C-12.26394531 15.90460938 -11.52789062 15.80921875 -10.76953125 15.7109375 C-9.79371094 15.60007813 -8.81789062 15.48921875 -7.8125 15.375 C-6.84957031 15.25898438 -5.88664063 15.14296875 -4.89453125 15.0234375 C-1.75924677 14.99805058 0.19486535 15.65640717 3 17 C3 16.34 3 15.68 3 15 C3.99 15 4.98 15 6 15 C5.67 14.01 5.34 13.02 5 12 C6.32 12 7.64 12 9 12 C9.33 11.01 9.66 10.02 10 9 C11.65 9 13.3 9 15 9 C10.47619048 13.77513228 10.47619048 13.77513228 7.75 15.0625 C5.77905978 15.8653367 5.77905978 15.8653367 5.25 18.125 C5.12625 19.053125 5.12625 19.053125 5 20 C3.63875 19.5359375 3.63875 19.5359375 2.25 19.0625 C-3.04506536 17.52310987 -8.52225363 17.34179698 -14 17 C-13.52456364 12.43903427 -11.96929909 10.50103449 -8.6875 7.375 C-7.90761719 6.61960938 -7.12773437 5.86421875 -6.32421875 5.0859375 C-4.28650213 3.25712964 -2.22184881 1.59647718 0 0 Z " fill="#B99C4C" transform="translate(226,234)"/>
<path d="M0 0 C1.125 3.75 1.125 3.75 0 6 C0.66 6 1.32 6 2 6 C2 4.68 2 3.36 2 2 C3.32 2.66 4.64 3.32 6 4 C4.625 6 4.625 6 3 8 C2.34 8 1.68 8 1 8 C1 8.99 1 9.98 1 11 C0.34 11 -0.32 11 -1 11 C-1.33 12.32 -1.66 13.64 -2 15 C-2.125 9.25 -2.125 9.25 -1 7 C-3.19117773 7.82201984 -3.19117773 7.82201984 -3.8515625 10.06640625 C-4.10679687 10.89011719 -4.36203125 11.71382812 -4.625 12.5625 C-4.88539063 13.38878906 -5.14578125 14.21507812 -5.4140625 15.06640625 C-5.60742188 15.70449219 -5.80078125 16.34257812 -6 17 C-7.32 17 -8.64 17 -10 17 C-9.67 18.98 -9.34 20.96 -9 23 C-11 21.375 -11 21.375 -13 19 C-13.25 15.75 -13.25 15.75 -13 13 C-10.525 13.495 -10.525 13.495 -8 14 C-7.67386719 13.32453125 -7.34773437 12.6490625 -7.01171875 11.953125 C-6.57472656 11.06109375 -6.13773438 10.1690625 -5.6875 9.25 C-5.25824219 8.36828125 -4.82898438 7.4865625 -4.38671875 6.578125 C-3.09896854 4.18399785 -1.69084246 2.12223042 0 0 Z " fill="#90E8AA" transform="translate(212,211)"/>
<path d="M0 0 C0.763125 0.309375 1.52625 0.61875 2.3125 0.9375 C6.5697955 2.62061683 10.12420285 3.24623188 14.6875 3.5625 C15.86699219 3.64628906 17.04648437 3.73007812 18.26171875 3.81640625 C19.61716797 3.90728516 19.61716797 3.90728516 21 4 C20.4043565 7.54209335 19.05508605 9.45829708 16.6875 12.125 C16.09324219 12.80820312 15.49898438 13.49140625 14.88671875 14.1953125 C13.01140418 15.98909166 11.3714805 16.98439908 9 18 C9.639375 17.278125 10.27875 16.55625 10.9375 15.8125 C12.98673535 13.01808816 13.61332946 11.38336726 14 8 C10.88089144 6.20724134 8.32317572 5.65709282 4.75 5.375 C3.85796875 5.30023438 2.9659375 5.22546875 2.046875 5.1484375 C1.03367187 5.07496094 1.03367187 5.07496094 0 5 C0.33 4.01 0.66 3.02 1 2 C0.67 1.34 0.34 0.68 0 0 Z " fill="#C89647" transform="translate(269,254)"/>
<path d="M0 0 C0.66 0.33 1.32 0.66 2 1 C1.34 2.32 0.68 3.64 0 5 C-0.99 5 -1.98 5 -3 5 C-3 5.66 -3 6.32 -3 7 C-2.071875 6.95875 -1.14375 6.9175 -0.1875 6.875 C3 7 3 7 6 9 C8.0492094 9.45139459 8.0492094 9.45139459 10.1875 9.625 C11.445625 9.74875 12.70375 9.8725 14 10 C14 10.66 14 11.32 14 12 C11.26094655 13.36952673 9.02912668 13.12621361 6 13 C5.34 12.67 4.68 12.34 4 12 C1.9625237 11.77141886 -0.08040303 11.58975722 -2.125 11.4375 C-3.76855469 11.31181641 -3.76855469 11.31181641 -5.4453125 11.18359375 C-6.28835938 11.12300781 -7.13140625 11.06242188 -8 11 C-7.43040847 7.37386801 -6.07625466 5.74482259 -3.4375 3.25 C-2.79683594 2.63640625 -2.15617187 2.0228125 -1.49609375 1.390625 C-1.00238281 0.93171875 -0.50867188 0.4728125 0 0 Z " fill="#2B8186" transform="translate(268,199)"/>
<path d="M0 0 C0 0.66 0 1.32 0 2 C0.66 2 1.32 2 2 2 C2.33 2.99 2.66 3.98 3 5 C2.030625 5.12375 1.06125 5.2475 0.0625 5.375 C-1.4534375 5.684375 -1.4534375 5.684375 -3 6 C-3.33 6.66 -3.66 7.32 -4 8 C-4.99 8 -5.98 8 -7 8 C-7.99 8.495 -7.99 8.495 -9 9 C-10.32 7.35 -11.64 5.7 -13 4 C-9.23751581 -0.35656064 -5.53870938 -1.58248839 0 0 Z " fill="#1E559E" transform="translate(183,312)"/>
<path d="M0 0 C2.68755653 0.07904578 4.46811804 0.54429551 6.52734375 2.30859375 C11.19607479 7.4525137 15.12917593 13.38307409 14.875 20.5 C14 23 14 23 12 24 C11.9175 23.01 11.835 22.02 11.75 21 C10.61820093 13.39859276 6.52350504 8.07670394 1.390625 2.56640625 C0 1 0 1 0 0 Z " fill="#6FDD7B" transform="translate(282,216)"/>
<path d="M0 0 C1.33333333 0.66666667 2.66666667 1.33333333 4 2 C6.58532701 2.45064632 6.58532701 2.45064632 9.25 2.625 C10.14203125 2.69976562 11.0340625 2.77453125 11.953125 2.8515625 C12.96632812 2.92503906 12.96632812 2.92503906 14 3 C13.67 4.32 13.34 5.64 13 7 C12.34 7 11.68 7 11 7 C11 7.66 11 8.32 11 9 C10.34 9 9.68 9 9 9 C9 9.66 9 10.32 9 11 C7.02 11.99 7.02 11.99 5 13 C5 11.68 5 10.36 5 9 C4.34 8.67 3.68 8.34 3 8 C3.99 7.34 4.98 6.68 6 6 C3.08235 4.0549 1.37462715 3.54723683 -2 3 C-2 2.34 -2 1.68 -2 1 C-1.34 0.67 -0.68 0.34 0 0 Z " fill="#256C96" transform="translate(223,301)"/>
<path d="M0 0 C0.99 0.33 1.98 0.66 3 1 C-6.39473684 8 -6.39473684 8 -13 8 C-13.33 8.99 -13.66 9.98 -14 11 C-14.33 10.34 -14.66 9.68 -15 9 C-18.0399648 8.30662208 -18.0399648 8.30662208 -21.5625 7.875 C-23.35880859 7.62363281 -23.35880859 7.62363281 -25.19140625 7.3671875 C-26.11824219 7.24601562 -27.04507813 7.12484375 -28 7 C-28 6.67 -28 6.34 -28 6 C-26.73285156 5.98582031 -25.46570313 5.97164063 -24.16015625 5.95703125 C-12.20009102 5.9214942 -12.20009102 5.9214942 -1.59375 0.9609375 C-1.0678125 0.64382813 -0.541875 0.32671875 0 0 Z " fill="#65E188" transform="translate(256,291)"/>
<path d="M0 0 C0.80244141 0.09345703 1.60488281 0.18691406 2.43164062 0.28320312 C3.26501953 0.38697266 4.09839844 0.49074219 4.95703125 0.59765625 C5.80201172 0.69755859 6.64699219 0.79746094 7.51757812 0.90039062 C9.60227322 1.14772733 11.68600409 1.40316666 13.76953125 1.66015625 C12.51976369 5.31332296 12.09854372 6.44081461 8.76953125 8.66015625 C8.76953125 7.34015625 8.76953125 6.02015625 8.76953125 4.66015625 C3.15953125 4.00015625 -2.45046875 3.34015625 -8.23046875 2.66015625 C-6.434391 -0.93199924 -3.51491907 -0.42378457 0 0 Z " fill="#399285" transform="translate(228.23046875,297.33984375)"/>
<path d="M0 0 C0.495 0.99 0.495 0.99 1 2 C-7.25 2 -15.5 2 -24 2 C-24.33 3.32 -24.66 4.64 -25 6 C-27.64 6.66 -30.28 7.32 -33 8 C-30.05197595 3.14443097 -25.5356943 0.67618515 -20.1875 -0.75 C-13.42831944 -1.28013181 -6.65612119 -1.416196 0 0 Z " fill="#CE9728" transform="translate(276,214)"/>
<path d="M0 0 C0.99 0.33 1.98 0.66 3 1 C3 1.66 3 2.32 3 3 C3.66 3 4.32 3 5 3 C5.25 6.3125 5.25 6.3125 5 10 C3 11.9375 3 11.9375 1 13 C0.71125 12.030625 0.4225 11.06125 0.125 10.0625 C-0.64214682 6.89335797 -0.64214682 6.89335797 -3 6 C-3 5.34 -3 4.68 -3 4 C-2.34 4 -1.68 4 -1 4 C-0.67 2.68 -0.34 1.36 0 0 Z " fill="#52E076" transform="translate(238,197)"/>
<path d="M0 0 C0.99 0.33 1.98 0.66 3 1 C1.89324887 3.91779844 1.1892778 4.88920324 -1.5625 6.5 C-4.17018863 7.74124148 -4.17018863 7.74124148 -4.6875 10.125 C-4.790625 10.74375 -4.89375 11.3625 -5 12 C-5.99 12.495 -5.99 12.495 -7 13 C-7.66 13.99 -8.32 14.98 -9 16 C-8.88512252 14.41590006 -8.75765492 12.83271037 -8.625 11.25 C-8.55539063 10.36828125 -8.48578125 9.4865625 -8.4140625 8.578125 C-8.00149945 6.00933618 -7.28839043 4.24158985 -6 2 C-4.68 2.33 -3.36 2.66 -2 3 C-1.34 2.01 -0.68 1.02 0 0 Z " fill="#1F569B" transform="translate(173,282)"/>
<path d="M0 0 C6.625 -0.25 6.625 -0.25 10 2 C10.6875 5.625 10.6875 5.625 11 9 C9.68 8.34 8.36 7.68 7 7 C7 6.34 7 5.68 7 5 C3.37 5 -0.26 5 -4 5 C-4 4.34 -4 3.68 -4 3 C-2.68 2.67 -1.36 2.34 0 2 C0 1.34 0 0.68 0 0 Z " fill="#85E49F" transform="translate(228,202)"/>
<path d="M0 0 C-0.33 1.98 -0.66 3.96 -1 6 C0.75029762 5.68917128 2.50022694 5.37626821 4.25 5.0625 C5.22453125 4.88847656 6.1990625 4.71445312 7.203125 4.53515625 C9.49721795 4.09620271 11.74291971 3.59651408 14 3 C14 3.99 14 4.98 14 6 C7.98617301 7.68442839 3.1323004 8.48021044 -3 7 C-5 4.9375 -5 4.9375 -6 3 C-3.375 0 -3.375 0 0 0 Z " fill="#5EDF83" transform="translate(264,298)"/>
<path d="M0 0 C0.33 0 0.66 0 1 0 C1.04125 1.11375 1.0825 2.2275 1.125 3.375 C1.78573981 9.0471971 4.88120327 13.34564892 8 18 C7.34 18.99 6.68 19.98 6 21 C2.28019838 16.7671223 -1.05451567 12.41813277 -0.9609375 6.55078125 C-0.71854712 4.34502878 -0.41034347 2.18025868 0 0 Z " fill="#7AD673" transform="translate(207,269)"/>
<path d="M0 0 C1.79093191 -0.08086147 3.58289628 -0.13912702 5.375 -0.1875 C6.87160156 -0.23970703 6.87160156 -0.23970703 8.3984375 -0.29296875 C9.25695312 -0.19628906 10.11546875 -0.09960938 11 0 C13 3 13 3 13.75 5.9375 C15.34493229 9.84508411 17.4290411 10.90400238 21 13 C21 13.33 21 13.66 21 14 C19.35 14 17.7 14 16 14 C16 13.34 16 12.68 16 12 C14.68 11.67 13.36 11.34 12 11 C12 9.35 12 7.7 12 6 C11.34 6 10.68 6 10 6 C10 4.68 10 3.36 10 2 C6.37 2 2.74 2 -1 2 C-0.67 1.34 -0.34 0.68 0 0 Z " fill="#D29360" transform="translate(211,266)"/>
<path d="M0 0 C0.66 0.33 1.32 0.66 2 1 C1.67 1.66 1.34 2.32 1 3 C0.34 3 -0.32 3 -1 3 C-1.1546875 3.804375 -1.1546875 3.804375 -1.3125 4.625 C-2.18092697 7.62502044 -3.55620296 10.2379535 -5 13 C-7 13 -9 13 -11 13 C-9.79618552 10.50638429 -8.54571278 8.31856917 -7 6 C-6.34 6 -5.68 6 -5 6 C-5 5.34 -5 4.68 -5 4 C-3.35 3.34 -1.7 2.68 0 2 C0 1.34 0 0.68 0 0 Z " fill="#4671AC" transform="translate(177,272)"/>
<path d="M0 0 C0.33 0.66 0.66 1.32 1 2 C1.66 2.33 2.32 2.66 3 3 C1.04653795 4.67268922 -0.91229814 6.33821581 -2.875 8 C-3.70837891 8.71542969 -3.70837891 8.71542969 -4.55859375 9.4453125 C-8.7734375 13 -8.7734375 13 -11 13 C-10.67 11.35 -10.34 9.7 -10 8 C-8.35 8 -6.7 8 -5 8 C-5 5.69 -5 3.38 -5 1 C-3.35 0.67 -1.7 0.34 0 0 Z " fill="#3C67A2" transform="translate(293,196)"/>
<path d="M0 0 C0.66 0.99 1.32 1.98 2 3 C1.505 3.433125 1.01 3.86625 0.5 4.3125 C-1.33218192 5.99740483 -1.33218192 5.99740483 -1 9 C-6.625 11.125 -6.625 11.125 -10 10 C-8.61122646 6.64379729 -7.08322035 4.92701272 -4 3 C-3.34 3 -2.68 3 -2 3 C-2 2.34 -2 1.68 -2 1 C-1.34 0.67 -0.68 0.34 0 0 Z " fill="#4671AB" transform="translate(281,189)"/>
<path d="M0 0 C0.99 0 1.98 0 3 0 C1.7580393 3.43927579 0.44259716 6.25207819 -2 9 C-2.66 9 -3.32 9 -4 9 C-4 9.66 -4 10.32 -4 11 C-6.5 12.625 -6.5 12.625 -9 14 C-9.33 12.35 -9.66 10.7 -10 9 C-8.35 7.68 -6.7 6.36 -5 5 C-5 5.66 -5 6.32 -5 7 C-4.34 7 -3.68 7 -3 7 C-3 6.34 -3 5.68 -3 5 C-2.34 5 -1.68 5 -1 5 C-0.67 3.35 -0.34 1.7 0 0 Z " fill="#426EAA" transform="translate(333,223)"/>
<path d="M0 0 C0.99 0.33 1.98 0.66 3 1 C3 1.66 3 2.32 3 3 C5.97 3 8.94 3 12 3 C11.67 4.98 11.34 6.96 11 9 C12.32 9 13.64 9 15 9 C15.33 9.99 15.66 10.98 16 12 C10.00432721 10.6163832 5.4130193 7.17146456 1 3 C0.67 2.01 0.34 1.02 0 0 Z " fill="#5279AF" transform="translate(168,319)"/>
<path d="M0 0 C0.33 0.66 0.66 1.32 1 2 C0.67 2.66 0.34 3.32 0 4 C-0.99 4 -1.98 4 -3 4 C-3.33 5.65 -3.66 7.3 -4 9 C-5.65 9.33 -7.3 9.66 -9 10 C-9 10.66 -9 11.32 -9 12 C-11.31 12.66 -13.62 13.32 -16 14 C-13.19195732 11.03595495 -10.81684226 8.55500981 -7 7 C-7 6.34 -7 5.68 -7 5 C-5.46875 3.7109375 -5.46875 3.7109375 -3.5 2.375 C-2.8503125 1.92898438 -2.200625 1.48296875 -1.53125 1.0234375 C-0.77328125 0.51683594 -0.77328125 0.51683594 0 0 Z " fill="#F0A35B" transform="translate(268,259)"/>
<path d="M0 0 C0.66 1.32 1.32 2.64 2 4 C4.64 4 7.28 4 10 4 C10 4.99 10 5.98 10 7 C5.01652166 7.16893147 1.57065526 7.15836498 -3 5 C-4.32676508 4.64141484 -5.65835921 4.2981424 -7 4 C-7 3.34 -7 2.68 -7 2 C-4.35261084 0.5393715 -3.10551666 0 0 0 Z " fill="#246F92" transform="translate(272,202)"/>
<path d="M0 0 C3.41637953 -0.11632513 6.83224897 -0.18728897 10.25 -0.25 C11.70212891 -0.30027344 11.70212891 -0.30027344 13.18359375 -0.3515625 C20.36321333 -0.45059174 20.36321333 -0.45059174 23.671875 1.890625 C25 4 25 4 25 6 C25.33 6.66 25.66 7.32 26 8 C23.82721299 6.95384329 21.87179836 5.90815405 19.90625 4.5 C16.03907967 2.50404112 12.47838083 2.20454192 8.1875 1.8125 C7.00510742 1.6897168 7.00510742 1.6897168 5.79882812 1.56445312 C3.86697624 1.36541384 1.93360587 1.18120893 0 1 C0 0.67 0 0.34 0 0 Z " fill="#87C95D" transform="translate(259,212)"/>
<path d="M0 0 C3.22065978 1.81162113 4.70134918 4.72624528 6 8.125 C5.75 10.5625 5.75 10.5625 5 12.125 C4.67 10.805 4.34 9.485 4 8.125 C3.34 8.125 2.68 8.125 2 8.125 C2 7.465 2 6.805 2 6.125 C1.13375 5.939375 1.13375 5.939375 0.25 5.75 C-2.02335767 5.11851176 -3.9253529 4.23641809 -6 3.125 C-2.68817204 0.16801075 -2.68817204 0.16801075 0 0 Z " fill="#7DE597" transform="translate(297,269.875)"/>
<path d="M0 0 C0.66 1.32 1.32 2.64 2 4 C1.34 4 0.68 4 0 4 C0.07605469 4.75796875 0.15210938 5.5159375 0.23046875 6.296875 C0 9 0 9 -1.57421875 10.765625 C-8.63820184 15.72738762 -8.63820184 15.72738762 -13 16 C-12.34 15.01 -11.68 14.02 -11 13 C-10.34 13 -9.68 13 -9 13 C-9 12.34 -9 11.68 -9 11 C-7.68 10.67 -6.36 10.34 -5 10 C-5 9.34 -5 8.68 -5 8 C-4.34 8 -3.68 8 -3 8 C-1.92474806 5.34771188 -0.90543849 2.71631546 0 0 Z " fill="#587EAB" transform="translate(322,212)"/>
<path d="M0 0 C0.99 0.99 1.98 1.98 3 3 C2.01 3 1.02 3 0 3 C0.99 3.99 1.98 4.98 3 6 C0.64031256 8.09749995 -0.54616994 8.96905704 -3.75 9.1875 C-4.4925 9.125625 -5.235 9.06375 -6 9 C-6.33 8.01 -6.66 7.02 -7 6 C-5.625 4.5 -5.625 4.5 -4 3 C-3.34 3 -2.68 3 -2 3 C-2 2.34 -2 1.68 -2 1 C-1.34 0.67 -0.68 0.34 0 0 Z " fill="#3D6BB0" transform="translate(186,265)"/>
<path d="M0 0 C1.65 0 3.3 0 5 0 C5 0.99 5 1.98 5 3 C7.475 3.99 7.475 3.99 10 5 C10 5.33 10 5.66 10 6 C9.21625 6.103125 8.4325 6.20625 7.625 6.3125 C4.66954819 6.77595022 4.66954819 6.77595022 3 10 C2.01 9.67 1.02 9.34 0 9 C0.185625 7.88625 0.37125 6.7725 0.5625 5.625 C1.31680657 2.17431139 1.31680657 2.17431139 0 0 Z " fill="#1D549D" transform="translate(262,232)"/>
<path d="M0 0 C0.66 0.33 1.32 0.66 2 1 C0.71372289 2.17260611 -0.57919783 3.3379283 -1.875 4.5 C-2.59429687 5.1496875 -3.31359375 5.799375 -4.0546875 6.46875 C-6 8 -6 8 -8 8 C-8 8.66 -8 9.32 -8 10 C-9.98 10.99 -9.98 10.99 -12 12 C-12 9.875 -12 9.875 -11 7 C-7.68900349 3.89686874 -4.31367669 1.43789223 0 0 Z " fill="#73EA8B" transform="translate(283,270)"/>
<path d="M0 0 C0.66 0.33 1.32 0.66 2 1 C-3.64524422 6.80205656 -3.64524422 6.80205656 -7 9 C-7.66 9 -8.32 9 -9 9 C-9.33 9.99 -9.66 10.98 -10 12 C-11.65 12 -13.3 12 -15 12 C-10.58990583 7.14889642 -5.41995647 3.651893 0 0 Z " fill="#4D79A4" transform="translate(202,253)"/>
<path d="M0 0 C0.66 0.33 1.32 0.66 2 1 C1.34 2.32 0.68 3.64 0 5 C-0.99 5 -1.98 5 -3 5 C-1.84826645 7.46800047 -0.95216435 9.04783565 1 11 C-1.97 11 -4.94 11 -8 11 C-6.96851752 6.87407007 -6.37713898 6.02929503 -3.4375 3.25 C-2.79683594 2.63640625 -2.15617187 2.0228125 -1.49609375 1.390625 C-1.00238281 0.93171875 -0.50867188 0.4728125 0 0 Z " fill="#4C959A" transform="translate(268,199)"/>
<path d="M0 0 C1.10085938 -0.00515625 2.20171875 -0.0103125 3.3359375 -0.015625 C6.72332226 0.25794051 9.45944028 1.04498331 12.625 2.25 C10.4864515 4.3885485 9.49224686 4.67655063 6.625 5.25 C6.295 4.59 5.965 3.93 5.625 3.25 C4.88894531 3.26160156 4.15289062 3.27320313 3.39453125 3.28515625 C2.41871094 3.29417969 1.44289063 3.30320313 0.4375 3.3125 C-1.00689453 3.32990234 -1.00689453 3.32990234 -2.48046875 3.34765625 C-5.23076513 3.25486622 -7.69979591 2.87111685 -10.375 2.25 C-6.88256472 0.10343002 -4.05803267 -0.01891857 0 0 Z " fill="#466FA3" transform="translate(308.375,176.75)"/>
<path d="M0 0 C0.66 0.33 1.32 0.66 2 1 C1.34 1.66 0.68 2.32 0 3 C-1.32 3 -2.64 3 -4 3 C-4 3.66 -4 4.32 -4 5 C-9.61 5 -15.22 5 -21 5 C-21 4.34 -21 3.68 -21 3 C-19.98679688 2.95101563 -18.97359375 2.90203125 -17.9296875 2.8515625 C-16.57810089 2.77647436 -15.22653962 2.70092919 -13.875 2.625 C-13.20984375 2.5940625 -12.5446875 2.563125 -11.859375 2.53125 C-7.5809166 2.27957598 -4.0337563 1.37650437 0 0 Z " fill="#C6992C" transform="translate(250,291)"/>
<path d="M0 0 C2.98355176 -0.24862931 4.64865849 -0.18991433 7.3125 1.25 C9 3 9 3 9 7 C8.01 7 7.02 7 6 7 C6 6.01 6 5.02 6 4 C4.02 4.66 2.04 5.32 0 6 C-1.125 2.25 -1.125 2.25 0 0 Z " fill="#F88015" transform="translate(274,259)"/>
<path d="M0 0 C4.68987468 -0.32720056 7.29037964 0.05132741 11 3 C12.82642805 5.25794676 14.39546089 7.57026935 16 10 C13.625 9.6875 13.625 9.6875 11 9 C10.34 8.01 9.68 7.02 9 6 C6.43717258 5.27034634 6.43717258 5.27034634 4 5 C4.33 3.68 4.66 2.36 5 1 C3.35 1 1.7 1 0 1 C0 0.67 0 0.34 0 0 Z " fill="#577CAF" transform="translate(262,231)"/>
<path d="M0 0 C0.66 0.33 1.32 0.66 2 1 C-0.33333333 3.33333333 -2.66666667 5.66666667 -5 8 C-5.40047444 10.32275177 -5.7397104 12.65739357 -6 15 C-7.65 15.33 -9.3 15.66 -11 16 C-9.45364633 9.127317 -4.82740069 4.82740069 0 0 Z " fill="#84F09E" transform="translate(218,236)"/>
<path d="M0 0 C1 3 1 3 1 5 C-1.31 5.33 -3.62 5.66 -6 6 C-6 6.66 -6 7.32 -6 8 C-10.29 8 -14.58 8 -19 8 C-19 7.67 -19 7.34 -19 7 C-17.78763672 6.81824219 -17.78763672 6.81824219 -16.55078125 6.6328125 C-15.48214844 6.46523438 -14.41351563 6.29765625 -13.3125 6.125 C-12.25675781 5.96257812 -11.20101562 5.80015625 -10.11328125 5.6328125 C-7.20205086 5.04106931 -4.71044393 4.1968194 -2 3 C-2 2.34 -2 1.68 -2 1 C-1.34 0.67 -0.68 0.34 0 0 Z " fill="#F5A55C" transform="translate(251,273)"/>
<path d="M0 0 C1.134375 0.515625 2.26875 1.03125 3.4375 1.5625 C7.57242467 3.13700868 10.7007216 3.03510246 15.01953125 2.32421875 C17 2 17 2 20 2 C20.33 2.66 20.66 3.32 21 4 C17.86650268 5.04449911 17.01031744 4.93423645 14 4 C14 4.66 14 5.32 14 6 C10.37 5.67 6.74 5.34 3 5 C2.67 4.01 2.34 3.02 2 2 C1.34 2 0.68 2 0 2 C0 1.34 0 0.68 0 0 Z " fill="#6383B3" transform="translate(183,312)"/>
<path d="M0 0 C-2.3129482 2.3129482 -3.47904875 2.49580975 -6.625 3.125 C-7.44226563 3.29257812 -8.25953125 3.46015625 -9.1015625 3.6328125 C-10.04128906 3.81457031 -10.04128906 3.81457031 -11 4 C-11 5.98 -11 7.96 -11 10 C-13.86724686 9.42655063 -14.8614515 9.1385485 -17 7 C-16.360625 6.731875 -15.72125 6.46375 -15.0625 6.1875 C-12.66868314 5.11332248 -12.66868314 5.11332248 -12 2 C-7.92532275 0.51117562 -4.33458585 -0.26270217 0 0 Z " fill="#8DE3A5" transform="translate(278,304)"/>
<path d="M0 0 C2.31 0.33 4.62 0.66 7 1 C7 1.99 7 2.98 7 4 C5.68 4 4.36 4 3 4 C3.33 5.98 3.66 7.96 4 10 C2 8.375 2 8.375 0 6 C-0.25 2.75 -0.25 2.75 0 0 Z " fill="#87E3A1" transform="translate(199,224)"/>
<path d="M0 0 C0.66 0.33 1.32 0.66 2 1 C1.67 1.99 1.34 2.98 1 4 C-1.31 4.33 -3.62 4.66 -6 5 C-6 5.66 -6 6.32 -6 7 C-11.29411765 11 -11.29411765 11 -15 11 C-10.29522805 6.64961347 -5.80351626 2.78568781 0 0 Z " fill="#7AEF93" transform="translate(250,212)"/>
<path d="M0 0 C0.99 0 1.98 0 3 0 C3.33 1.65 3.66 3.3 4 5 C4.68707031 4.7834375 5.37414062 4.566875 6.08203125 4.34375 C6.98308594 4.0653125 7.88414062 3.786875 8.8125 3.5 C10.15248047 3.08234375 10.15248047 3.08234375 11.51953125 2.65625 C14 2 14 2 17 2 C16 4 16 4 14.14453125 4.8515625 C9.62151874 6.3516571 5.83255247 7.37173481 1 7 C1.33 5.02 1.66 3.04 2 1 C1.34 0.67 0.68 0.34 0 0 Z " fill="#8FE5A9" transform="translate(262,297)"/>
<path d="M0 0 C0 0.66 0 1.32 0 2 C-0.66 2 -1.32 2 -2 2 C-2.33 3.65 -2.66 5.3 -3 7 C-4.65 6.67 -6.3 6.34 -8 6 C-8 7.32 -8 8.64 -8 10 C-8.66 10 -9.32 10 -10 10 C-9.9375 7.25 -9.9375 7.25 -9 4 C-6.38191163 1.82922321 -3.48512002 0 0 0 Z " fill="#5FDF82" transform="translate(222,207)"/>
<path d="M0 0 C0.66 0.33 1.32 0.66 2 1 C1.34 2.32 0.68 3.64 0 5 C-0.66 5 -1.32 5 -2 5 C-2 5.66 -2 6.32 -2 7 C-6.455 8.485 -6.455 8.485 -11 10 C-9.71034824 8.62437146 -8.37310707 7.29233607 -7 6 C-6.34 6 -5.68 6 -5 6 C-4.731875 5.38125 -4.46375 4.7625 -4.1875 4.125 C-3 2 -3 2 0 0 Z " fill="#8BC453" transform="translate(261,284)"/>
<path d="M0 0 C3.47093883 1.21951905 5.43570977 2.43570977 8 5 C10.59915538 6.19027984 10.59915538 6.19027984 13 7 C13 7.66 13 8.32 13 9 C8.545 8.01 8.545 8.01 4 7 C4 6.01 4 5.02 4 4 C3.34 4 2.68 4 2 4 C2 3.34 2 2.68 2 2 C1.34 2 0.68 2 0 2 C0 1.34 0 0.68 0 0 Z " fill="#6986B2" transform="translate(225,269)"/>
<path d="M0 0 C1.65 0 3.3 0 5 0 C-0.83098592 5.99295775 -0.83098592 5.99295775 -4 8 C-4.99 8 -5.98 8 -7 8 C-7 7.34 -7 6.68 -7 6 C-6.01 6 -5.02 6 -4 6 C-4.33 5.01 -4.66 4.02 -5 3 C-3.68 3 -2.36 3 -1 3 C-0.67 2.01 -0.34 1.02 0 0 Z " fill="#EF944A" transform="translate(236,243)"/>
<path d="M0 0 C0.85078125 0.24363281 0.85078125 0.24363281 1.71875 0.4921875 C4.05543918 1.01234091 6.10980766 1.13318559 8.5 1.125 C9.2528125 1.12757813 10.005625 1.13015625 10.78125 1.1328125 C12.973535 1.00158417 14.89319137 0.60331338 17 0 C17 0.66 17 1.32 17 2 C16.34 2 15.68 2 15 2 C15 2.66 15 3.32 15 4 C4.44191344 4.3690205 4.44191344 4.3690205 0 2 C0 1.34 0 0.68 0 0 Z " fill="#345181" transform="translate(277,241)"/>
<path d="M0 0 C1.07765625 0.01804687 2.1553125 0.03609375 3.265625 0.0546875 C4.49539062 0.08949219 4.49539062 0.08949219 5.75 0.125 C5.75 0.785 5.75 1.445 5.75 2.125 C0.22032059 2.83533431 -4.74983036 3.42767176 -10.25 2.125 C-6.7733662 -0.01836161 -4.03770805 -0.08777626 0 0 Z " fill="#6583B7" transform="translate(196.25,329.875)"/>
<path d="M0 0 C1.2065625 0.0309375 1.2065625 0.0309375 2.4375 0.0625 C1.2887638 3.50870861 0.36168358 4.15419196 -2.5 6.25 C-3.21027344 6.77980469 -3.92054688 7.30960938 -4.65234375 7.85546875 C-6.5625 9.0625 -6.5625 9.0625 -8.5625 9.0625 C-8.8925 8.0725 -9.2225 7.0825 -9.5625 6.0625 C-8.5725 6.0625 -7.5825 6.0625 -6.5625 6.0625 C-6.2325 5.4025 -5.9025 4.7425 -5.5625 4.0625 C-4.5725 4.0625 -3.5825 4.0625 -2.5625 4.0625 C-2.8925 3.0725 -3.2225 2.0825 -3.5625 1.0625 C-2.5625 0.0625 -2.5625 0.0625 0 0 Z " fill="#5679AD" transform="translate(316.5625,239.9375)"/>
<path d="M0 0 C2.31 0 4.62 0 7 0 C7.33 1.32 7.66 2.64 8 4 C6.68 3.67 5.36 3.34 4 3 C3.01 4.32 2.02 5.64 1 7 C0.67 4.69 0.34 2.38 0 0 Z " fill="#73DE8B" transform="translate(294,279)"/>
<path d="M0 0 C0.99 0.495 0.99 0.495 2 1 C1.979375 2.093125 1.95875 3.18625 1.9375 4.3125 C1.81455548 7.94384191 1.81455548 7.94384191 3 11 C3.66 11 4.32 11 5 11 C5 11.99 5 12.98 5 14 C5.66 14 6.32 14 7 14 C7.33 15.65 7.66 17.3 8 19 C4.03315244 16.59155684 1.5811413 13.32343324 0 9 C-0.30886396 5.9644464 -0.24799392 3.03792548 0 0 Z " fill="#C89837" transform="translate(208,268)"/>
<path d="M0 0 C2.7839183 1.39195915 2.97898997 3.15575779 4 6 C1.69 6.33 -0.62 6.66 -3 7 C-3 5.68 -3 4.36 -3 3 C-2.34 3 -1.68 3 -1 3 C-0.67 2.01 -0.34 1.02 0 0 Z " fill="#21549A" transform="translate(179,272)"/>
<path d="M0 0 C1.98 0.66 3.96 1.32 6 2 C5.875 3.8125 5.875 3.8125 5 6 C1.9375 7.75 1.9375 7.75 -1 9 C-1 6 -1 6 1 4 C0.6814823 1.89179203 0.6814823 1.89179203 0 0 Z " fill="#7DE59C" transform="translate(209,226)"/>
<path d="M0 0 C0.66 0 1.32 0 2 0 C1.67 2.64 1.34 5.28 1 8 C-0.32 8.33 -1.64 8.66 -3 9 C-3.33 7.02 -3.66 5.04 -4 3 C-2.68 3 -1.36 3 0 3 C0 2.01 0 1.02 0 0 Z " fill="#4BDE72" transform="translate(206,225)"/>
<path d="M0 0 C0.66 0.33 1.32 0.66 2 1 C0.39737025 4.38332948 -0.34059146 5.76149053 -3.9375 7.0625 C-4.948125 7.371875 -5.95875 7.68125 -7 8 C-9.33531458 9.99935694 -9.33531458 9.99935694 -11 12 C-11.66 11.67 -12.32 11.34 -13 11 C-8.73958774 7.23645964 -4.48151089 3.50118038 0 0 Z " fill="#B8A334" transform="translate(241,222)"/>
<path d="M0 0 C-1.2684375 0.8353125 -1.2684375 0.8353125 -2.5625 1.6875 C-6.10127989 4.04387134 -9.54991268 6.51593713 -13 9 C-12.2421875 5.21875 -12.2421875 5.21875 -10.0625 3.25 C-8 2 -8 2 -6 2 C-6 1.34 -6 0.68 -6 0 C-2.25 -1.125 -2.25 -1.125 0 0 Z " fill="#73D560" transform="translate(250,217)"/>
<path d="M0 0 C1.23556641 0.01740234 1.23556641 0.01740234 2.49609375 0.03515625 C3.32238281 0.04417969 4.14867187 0.05320313 5 0.0625 C5.63808594 0.07410156 6.27617187 0.08570313 6.93359375 0.09765625 C7.26359375 0.75765625 7.59359375 1.41765625 7.93359375 2.09765625 C4.46859375 3.58265625 4.46859375 3.58265625 0.93359375 5.09765625 C0.93359375 4.43765625 0.93359375 3.77765625 0.93359375 3.09765625 C-0.38640625 2.43765625 -1.70640625 1.77765625 -3.06640625 1.09765625 C-2.06640625 0.09765625 -2.06640625 0.09765625 0 0 Z " fill="#205399" transform="translate(299.06640625,178.90234375)"/>
<path d="M0 0 C0.66 0.33 1.32 0.66 2 1 C-1.3 4.3 -4.6 7.6 -8 11 C-8.33 10.01 -8.66 9.02 -9 8 C-7.71034824 6.62437146 -6.37310707 5.29233607 -5 4 C-4.34 4 -3.68 4 -3 4 C-2.67 3.01 -2.34 2.02 -2 1 C-1.34 0.67 -0.68 0.34 0 0 Z " fill="#62DD64" transform="translate(221,236)"/>
<path d="M0 0 C0.33 1.32 0.66 2.64 1 4 C-1.35968744 6.09749995 -2.54616994 6.96905704 -5.75 7.1875 C-6.86375 7.0946875 -6.86375 7.0946875 -8 7 C-6.71034824 5.62437146 -5.37310707 4.29233607 -4 3 C-3.34 3 -2.68 3 -2 3 C-2 2.34 -2 1.68 -2 1 C-1.34 0.67 -0.68 0.34 0 0 Z " fill="#5079AC" transform="translate(211,306)"/>
<path d="M0 0 C2.4375 1.1875 2.4375 1.1875 5 3 C5.8125 5.6875 5.8125 5.6875 6 8 C5.01 8.66 4.02 9.32 3 10 C3 8.02 3 6.04 3 4 C2.34 4 1.68 4 1 4 C0.67 2.68 0.34 1.36 0 0 Z " fill="#90E9A9" transform="translate(240,196)"/>
<path d="M0 0 C2.31 0.33 4.62 0.66 7 1 C6.34 2.32 5.68 3.64 5 5 C2.525 4.01 2.525 4.01 0 3 C-0.33 3.66 -0.66 4.32 -1 5 C-0.67 3.35 -0.34 1.7 0 0 Z " fill="#3261A4" transform="translate(219,313)"/>
<path d="M0 0 C2.97 0 5.94 0 9 0 C9.33 0.99 9.66 1.98 10 3 C2.25 3.125 2.25 3.125 0 2 C0 1.34 0 0.68 0 0 Z " fill="#ED8429" transform="translate(233,281)"/>
<path d="M0 0 C0.66 0.33 1.32 0.66 2 1 C1.67 1.99 1.34 2.98 1 4 C1.99 4 2.98 4 4 4 C3.67 5.98 3.34 7.96 3 10 C2.67 9.01 2.34 8.02 2 7 C-0.00016466 5.79117904 -0.00016466 5.79117904 -2 5 C-2 4.01 -2 3.02 -2 2 C-1.34 2 -0.68 2 0 2 C0 1.34 0 0.68 0 0 Z " fill="#8EE6A2" transform="translate(289,274)"/>
<path d="M0 0 C0.33 0.99 0.66 1.98 1 3 C-0.75 5 -0.75 5 -3 7 C-4.32 7 -5.64 7 -7 7 C-7 6.34 -7 5.68 -7 5 C-5.46875 3.7109375 -5.46875 3.7109375 -3.5 2.375 C-2.8503125 1.92898437 -2.200625 1.48296875 -1.53125 1.0234375 C-1.0259375 0.68570313 -0.520625 0.34796875 0 0 Z " fill="#34729C" transform="translate(303,232)"/>
<path d="M0 0 C6.70518586 -0.19818283 12.65176798 -0.30844801 19 2 C19 2.33 19 2.66 19 3 C11.25 3.125 11.25 3.125 9 2 C7.46331135 1.77532169 5.92031946 1.59203195 4.375 1.4375 C3.55773437 1.35371094 2.74046875 1.26992187 1.8984375 1.18359375 C1.27195312 1.12300781 0.64546875 1.06242188 0 1 C0 0.67 0 0.34 0 0 Z " fill="#56D37C" transform="translate(260,210)"/>
<path d="M0 0 C2.33944736 0.28730055 4.6739143 0.61936779 7 1 C6.01 1.495 6.01 1.495 5 2 C5 2.66 5 3.32 5 4 C3.02 4.99 3.02 4.99 1 6 C1 4.68 1 3.36 1 2 C0.34 1.67 -0.32 1.34 -1 1 C-0.67 0.67 -0.34 0.34 0 0 Z " fill="#4F7DB6" transform="translate(227,308)"/>
<path d="M0 0 C0.66 1.32 1.32 2.64 2 4 C2.66 4 3.32 4 4 4 C4.33 3.34 4.66 2.68 5 2 C4.43628586 5.26954202 3.50037734 6.82575883 1 9 C0.67 8.01 0.34 7.02 0 6 C-0.66 5.34 -1.32 4.68 -2 4 C-1.34 2.68 -0.68 1.36 0 0 Z " fill="#97E9AB" transform="translate(290,284)"/>
<path d="M0 0 C1.98 0.99 3.96 1.98 6 3 C6 3.66 6 4.32 6 5 C6.66 5.33 7.32 5.66 8 6 C6.02 6 4.04 6 2 6 C1.67 5.01 1.34 4.02 1 3 C0.34 2.67 -0.32 2.34 -1 2 C-0.67 1.34 -0.34 0.68 0 0 Z " fill="#49E071" transform="translate(293,273)"/>
<path d="M0 0 C0.33 0.66 0.66 1.32 1 2 C3.52733235 2.65555119 3.52733235 2.65555119 6 3 C3.64561267 4.42944945 2.51967567 5.08661261 -0.25 4.625 C-0.8275 4.41875 -1.405 4.2125 -2 4 C-2 3.01 -2 2.02 -2 1 C-1.34 0.67 -0.68 0.34 0 0 Z " fill="#1A579B" transform="translate(276,241)"/>
<path d="M0 0 C-0.33 0.99 -0.66 1.98 -1 3 C-1.99 2.67 -2.98 2.34 -4 2 C-4 4.31 -4 6.62 -4 9 C-3.34 9.33 -2.68 9.66 -2 10 C-2.99 10 -3.98 10 -5 10 C-6.125 3.25 -6.125 3.25 -5 1 C-2 0 -2 0 0 0 Z " fill="#5F86B2" transform="translate(262,232)"/>
<path d="M0 0 C2.11180592 2.57089417 3.66306057 4.63060567 4 8 C3.34 8.66 2.68 9.32 2 10 C-1.875 3.25 -1.875 3.25 -3 1 C-2.01 0.67 -1.02 0.34 0 0 Z " fill="#6286B9" transform="translate(320,195)"/>
<path d="M0 0 C0.66 0.33 1.32 0.66 2 1 C2.99 0.67 3.98 0.34 5 0 C5 0.66 5 1.32 5 2 C3.46875 3.2890625 3.46875 3.2890625 1.5 4.625 C0.8503125 5.07101562 0.200625 5.51703125 -0.46875 5.9765625 C-0.9740625 6.31429688 -1.479375 6.65203125 -2 7 C-2.33 5.68 -2.66 4.36 -3 3 C-2.01 3 -1.02 3 0 3 C0 2.01 0 1.02 0 0 Z " fill="#4782A2" transform="translate(202,269)"/>
<path d="M0 0 C0.33 0.99 0.66 1.98 1 3 C0.01 3.33 -0.98 3.66 -2 4 C-2.33 4.99 -2.66 5.98 -3 7 C-4.65 7 -6.3 7 -8 7 C-5.42215154 4.35247996 -3.08351902 2.05567935 0 0 Z " fill="#5B80AF" transform="translate(195,258)"/>
<path d="M0 0 C0.66 0 1.32 0 2 0 C2.66 2.97 3.32 5.94 4 9 C3.01 9.33 2.02 9.66 1 10 C-0.1577506 6.52674819 -0.06866652 3.63932552 0 0 Z " fill="#225296" transform="translate(258,234)"/>
<path d="M0 0 C1.98 0.66 3.96 1.32 6 2 C6 2.66 6 3.32 6 4 C6.99 4.33 7.98 4.66 9 5 C8.01 5.33 7.02 5.66 6 6 C2.8125 4.1875 2.8125 4.1875 0 2 C0 1.34 0 0.68 0 0 Z " fill="#6284B5" transform="translate(321,180)"/>
<path d="M0 0 C0.66 0.33 1.32 0.66 2 1 C0.02 3.97 0.02 3.97 -2 7 C-3.32 6.34 -4.64 5.68 -6 5 C-4.02 3.35 -2.04 1.7 0 0 Z " fill="#517BB0" transform="translate(218,300)"/>
<path d="M0 0 C5.53846154 0.61538462 5.53846154 0.61538462 7.875 2.5625 C8.431875 3.2740625 8.431875 3.2740625 9 4 C7.02 4.33 5.04 4.66 3 5 C3 4.34 3 3.68 3 3 C1.54166642 1.37485532 1.54166642 1.37485532 0 0 Z " fill="#67D180" transform="translate(219,293)"/>
<path d="M0 0 C1.32 1.65 2.64 3.3 4 5 C0.86650268 6.04449911 0.01031744 5.93423645 -3 5 C-2.67 4.01 -2.34 3.02 -2 2 C-1.34 2 -0.68 2 0 2 C0 1.34 0 0.68 0 0 Z " fill="#4C72AB" transform="translate(179,306)"/>
<path d="M0 0 C0.33 0 0.66 0 1 0 C0.67 2.31 0.34 4.62 0 7 C-1.32 7.33 -2.64 7.66 -4 8 C-4 6.68 -4 5.36 -4 4 C-3.34 4 -2.68 4 -2 4 C-1.34 2.68 -0.68 1.36 0 0 Z " fill="#235495" transform="translate(167,300)"/>
<path d="M0 0 C-1.175625 0.928125 -1.175625 0.928125 -2.375 1.875 C-4.96837647 3.89858661 -4.96837647 3.89858661 -7 6 C-7.33 4.35 -7.66 2.7 -8 1 C-4.93251126 -0.86240388 -3.40254489 -1.2151946 0 0 Z " fill="#5378A9" transform="translate(187,287)"/>
<path d="M0 0 C0.99 0 1.98 0 3 0 C1.68775452 3.93673644 0.08089673 6.22719294 -3 9 C-3 7.68 -3 6.36 -3 5 C-2.34 5 -1.68 5 -1 5 C-0.67 3.35 -0.34 1.7 0 0 Z " fill="#6480B5" transform="translate(333,223)"/>
<path d="M0 0 C2.0625 0.4375 2.0625 0.4375 4 1 C3.0022242 3.99332739 2.2477975 4.94766315 0 7 C-0.38133299 5.0085944 -0.71325582 3.00720923 -1 1 C-0.67 0.67 -0.34 0.34 0 0 Z " fill="#79DC96" transform="translate(236,194)"/>
<path d="M0 0 C1.65 0 3.3 0 5 0 C5 1.32 5 2.64 5 4 C5.66 4.33 6.32 4.66 7 5 C6.01 5.66 5.02 6.32 4 7 C3.67 5.35 3.34 3.7 3 2 C2.01 1.67 1.02 1.34 0 1 C0 0.67 0 0.34 0 0 Z " fill="#F08422" transform="translate(216,268)"/>
<path d="M0 0 C1.65 0 3.3 0 5 0 C3.71937515 1.7074998 2.38232443 3.37373596 1 5 C0.34 5 -0.32 5 -1 5 C-0.67 3.35 -0.34 1.7 0 0 Z " fill="#F0984D" transform="translate(244,236)"/>
<path d="M0 0 C0.66 0.33 1.32 0.66 2 1 C1.67 1.99 1.34 2.98 1 4 C-0.98 4.33 -2.96 4.66 -5 5 C-4 2 -4 2 -2.0625 0.75 C-1.381875 0.5025 -0.70125 0.255 0 0 Z " fill="#75E888" transform="translate(250,212)"/>
<path d="M0 0 C1.65 0 3.3 0 5 0 C5 0.66 5 1.32 5 2 C2.23749964 3.38125018 0.05268901 3.19079306 -3 3 C-3.66 2.34 -4.32 1.68 -5 1 C-3.35 1 -1.7 1 0 1 C0 0.67 0 0.34 0 0 Z " fill="#399080" transform="translate(277,209)"/>
<path d="M0 0 C1.65 0 3.3 0 5 0 C4.67 0.99 4.34 1.98 4 3 C1.4375 4.1875 1.4375 4.1875 -1 5 C-0.67 3.35 -0.34 1.7 0 0 Z " fill="#5080A6" transform="translate(283,204)"/>
<path d="M0 0 C0.99 0.33 1.98 0.66 3 1 C2.67 1.99 2.34 2.98 2 4 C0.02 4.33 -1.96 4.66 -4 5 C-4 4.34 -4 3.68 -4 3 C-2.68 2.67 -1.36 2.34 0 2 C0 1.34 0 0.68 0 0 Z " fill="#4EDD71" transform="translate(228,202)"/>
<path d="M0 0 C6.625 0.75 6.625 0.75 10 3 C8.02 3.66 6.04 4.32 4 5 C3.896875 4.360625 3.79375 3.72125 3.6875 3.0625 C3.460625 2.381875 3.23375 1.70125 3 1 C2.01 0.67 1.02 0.34 0 0 Z " fill="#587FB6" transform="translate(311,177)"/>
<path d="M0 0 C1.4606285 2.64738916 2 3.89448334 2 7 C2.66 7 3.32 7 4 7 C3.67 7.66 3.34 8.32 3 9 C1.68 8.01 0.36 7.02 -1 6 C-0.67 4.02 -0.34 2.04 0 0 Z " fill="#8DE5A4" transform="translate(257,302)"/>
<path d="M0 0 C0 1.98 0 3.96 0 6 C-1.65 6.33 -3.3 6.66 -5 7 C-4.53479806 4.30182875 -3.4249099 0 0 0 Z " fill="#77DD87" transform="translate(212,245)"/>
<path d="M0 0 C1.70884005 1.62339805 3.37446717 3.29319053 5 5 C5 5.66 5 6.32 5 7 C4.01 7 3.02 7 2 7 C0 4 0 4 0 0 Z " fill="#C0A231" transform="translate(285,220)"/>
<path d="M0 0 C2.31 0.33 4.62 0.66 7 1 C5.515 2.485 5.515 2.485 4 4 C1.525 3.01 1.525 3.01 -1 2 C-0.67 1.34 -0.34 0.68 0 0 Z " fill="#356E9F" transform="translate(230,305)"/>
<path d="M0 0 C-0.33 0.66 -0.66 1.32 -1 2 C-3.32156597 2.40729228 -5.6568787 2.74438677 -8 3 C-8 2.34 -8 1.68 -8 1 C-4.93251126 -0.86240388 -3.40254489 -1.2151946 0 0 Z " fill="#54E179" transform="translate(279,302)"/>
<path d="M0 0 C2.31 0.33 4.62 0.66 7 1 C7 1.99 7 2.98 7 4 C6.67 3.67 6.34 3.34 6 3 C2.27775401 2.70613847 1.22213757 2.85190829 -2 5 C-1.34 3.35 -0.68 1.7 0 0 Z " fill="#2B5994" transform="translate(225,253)"/>
<path d="M0 0 C0.99 0 1.98 0 3 0 C3.33 0.99 3.66 1.98 4 3 C3.34 3.66 2.68 4.32 2 5 C1.01 5 0.02 5 -1 5 C-0.67 3.35 -0.34 1.7 0 0 Z " fill="#1B579B" transform="translate(266,246)"/>
<path d="M0 0 C1.32 0 2.64 0 4 0 C3.67 0.99 3.34 1.98 3 3 C1.35 3.33 -0.3 3.66 -2 4 C-1.34 2.68 -0.68 1.36 0 0 Z " fill="#71E782" transform="translate(233,224)"/>
<path d="M0 0 C0.33 0.99 0.66 1.98 1 3 C-1.375 4.5625 -1.375 4.5625 -4 6 C-4.66 5.67 -5.32 5.34 -6 5 C-4.68 4.34 -3.36 3.68 -2 3 C-2 2.34 -2 1.68 -2 1 C-1.34 0.67 -0.68 0.34 0 0 Z " fill="#6587B7" transform="translate(315,222)"/>
<path d="M0 0 C0.66 0.33 1.32 0.66 2 1 C1.67 1.99 1.34 2.98 1 4 C-0.98 4.33 -2.96 4.66 -5 5 C-3.35 3.35 -1.7 1.7 0 0 Z " fill="#6689BA" transform="translate(287,184)"/>
<path d="M0 0 C1.65 0.33 3.3 0.66 5 1 C5 1.66 5 2.32 5 3 C3.68 2.67 2.36 2.34 1 2 C0.67 2.99 0.34 3.98 0 5 C-0.66 5 -1.32 5 -2 5 C-2 4.01 -2 3.02 -2 2 C-1.34 2 -0.68 2 0 2 C0 1.34 0 0.68 0 0 Z " fill="#20569B" transform="translate(325,185)"/>
<path d="M0 0 C0.33 1.65 0.66 3.3 1 5 C-0.32 5 -1.64 5 -3 5 C-2.34 4.67 -1.68 4.34 -1 4 C-1 3.34 -1 2.68 -1 2 C-1.99 2.33 -2.98 2.66 -4 3 C-4 2.34 -4 1.68 -4 1 C-2 0 -2 0 0 0 Z " fill="#4E78B2" transform="translate(293,181)"/>
</svg>
